<svg width="140" height="100" viewBox="0 0 140 100" fill="none" xmlns="http://www.w3.org/2000/svg">
<path d="M131.25 41.25H8.75C3.91754 41.25 0 45.1675 0 50C0 54.8325 3.91754 58.75 8.75 58.75H131.25C136.082 58.75 140 54.8325 140 50C140 45.1675 136.082 41.25 131.25 41.25Z" fill="black"/>
<path d="M8.75 17.9168H131.25C136.082 17.9168 140 13.9992 140 9.16675C140 4.33429 136.082 0.416748 131.25 0.416748H8.75C3.91754 0.416748 0 4.33429 0 9.16675C0 13.9992 3.91754 17.9168 8.75 17.9168Z" fill="black"/>
<path d="M131.25 82.0832H8.75C3.91754 82.0832 0 86.0008 0 90.8332C0 95.6657 3.91754 99.5832 8.75 99.5832H131.25C136.082 99.5832 140 95.6657 140 90.8332C140 86.0008 136.082 82.0832 131.25 82.0832Z" fill="black"/>
</svg>
