<?xml version="1.0" encoding="UTF-8" standalone="no"?>
<!DOCTYPE svg PUBLIC "-//W3C//DTD SVG 1.1//EN" "http://www.w3.org/Graphics/SVG/1.1/DTD/svg11.dtd">
<svg width="100%" height="100%" viewBox="0 0 200 201" version="1.1" xmlns="http://www.w3.org/2000/svg" xmlns:xlink="http://www.w3.org/1999/xlink" xml:space="preserve" xmlns:serif="http://www.serif.com/" style="fill-rule:evenodd;clip-rule:evenodd;stroke-linejoin:round;stroke-miterlimit:2;">
    <g transform="matrix(1,0,0,1,-750,-261)">
        <g id="github-white" transform="matrix(1,0,0,1,0,261.375)">
            <rect x="750" y="0" width="200" height="200" style="fill:none;"/>
            <clipPath id="_clip1">
                <rect x="750" y="0" width="200" height="200"/>
            </clipPath>
            <g clip-path="url(#_clip1)">
                <g transform="matrix(1,0,0,1,750,0.0421847)">
                    <g transform="matrix(1,0,0,1,9.53972e-05,0.0139384)">
                        <path d="M200,52C200,38.209 194.521,24.982 184.77,15.231C175.018,5.479 161.791,0 148,0L52,0C38.209,0 24.982,5.479 15.231,15.231C5.479,24.982 0,38.209 0,52L0,147.72C0,161.605 5.553,174.914 15.422,184.681C25.292,194.448 38.657,199.862 52.542,199.717C63.289,199.606 71.534,199.439 72.031,199.19C75.234,197.628 75.469,196.534 75.156,182.706L74.883,171.456L73.281,171.769C72.383,171.925 68.515,172.042 64.648,172.042C54.687,172.003 50.742,170.831 46.055,166.456C43.515,164.112 43.281,163.722 40.781,158.253C37.89,151.886 34.023,146.925 30.586,145.167C29.062,144.347 26.562,141.495 26.562,140.519C26.562,138.995 31.133,138.526 34.609,139.698C39.414,141.339 43.242,144.503 46.64,149.698C51.015,156.3 55.937,159.698 61.679,160.05C65.156,160.245 69.297,159.659 72.812,158.526L75.351,157.706L75.976,154.776C76.719,151.456 78.75,147.237 80.547,145.44L81.719,144.19L80.586,143.995C80,143.878 78.633,143.683 77.539,143.526C65.937,142.12 54.609,137.12 48.203,130.636C44.297,126.651 41.64,122.237 39.453,115.792C37.109,109.151 36.562,105.323 36.562,95.87C36.562,87.589 36.601,87.159 37.617,83.761C39.414,77.901 42.305,72.55 45.351,69.308L46.445,68.136L45.703,65.636C44.531,61.925 44.101,57.003 44.531,52.902C44.765,50.987 45,49.112 45.117,48.8C45.195,48.487 45.703,46.691 46.25,44.816C47.265,41.495 47.304,41.417 48.672,41.144C52.5,40.441 63.672,44.542 72.148,49.855L74.961,51.612L78.594,50.792C87.109,48.956 91.836,48.409 100,48.409C108.164,48.409 112.89,48.956 121.406,50.792L125.039,51.612L127.851,49.894C137.265,44.112 146.718,40.519 150.82,41.144L152.617,41.417L153.672,44.816C155.234,50.05 155.547,52.433 155.351,57.98C155.234,61.691 154.961,63.722 154.375,65.597L153.554,68.136L154.648,69.308C157.734,72.589 160.625,78.019 162.343,83.761C163.203,86.691 163.398,88.292 163.554,93.37C164.101,109.269 159.804,122.745 151.679,130.675C145.156,137.042 135.898,141.3 124.609,143.136C122.578,143.448 120.312,143.839 119.609,143.956L118.32,144.151L119.648,145.675C121.562,147.94 122.968,150.675 123.906,154.151C124.687,157.003 124.765,158.37 124.961,176.925C125.234,199.542 125.039,198.331 128.593,199.386C129.148,199.541 137.124,199.658 147.56,199.747C161.427,199.864 174.766,194.438 184.614,184.674C194.461,174.909 200,161.616 200,147.749C200,118.237 200,81.473 200,52Z" style="fill:white;fill-rule:nonzero;"/>
                    </g>
                    <g transform="matrix(1,0,0,1,9.53972e-05,0.0139384)">
                        <path d="M35.508,142.198C35.078,142.472 35.117,142.667 35.82,143.37C36.758,144.308 38.047,144.112 37.813,143.097C37.656,142.276 36.25,141.73 35.508,142.198Z" style="fill:white;fill-rule:nonzero;"/>
                    </g>
                    <g transform="matrix(1,0,0,1,9.53972e-05,0.0139384)">
                        <path d="M39.492,145.831C38.867,146.573 40.586,148.644 41.524,148.292C42.383,147.979 42.383,146.729 41.484,145.948C40.586,145.128 40.078,145.128 39.492,145.831Z" style="fill:white;fill-rule:nonzero;"/>
                    </g>
                    <g transform="matrix(1,0,0,1,9.53972e-05,0.0139384)">
                        <path d="M43.398,150.909C43.008,151.339 43.047,151.73 43.516,152.628C44.258,154.073 45.117,154.425 45.898,153.644C46.68,152.862 46.641,152.628 45.664,151.378C44.766,150.245 44.063,150.089 43.398,150.909Z" style="fill:white;fill-rule:nonzero;"/>
                    </g>
                    <g transform="matrix(1,0,0,1,9.53972e-05,0.0139384)">
                        <path d="M48.399,156.573C47.539,157.276 47.539,157.315 48.164,158.331C48.867,159.347 50.43,160.011 51.133,159.542C51.797,159.151 51.641,157.589 50.899,156.925C49.649,155.87 49.297,155.831 48.399,156.573Z" style="fill:white;fill-rule:nonzero;"/>
                    </g>
                    <g transform="matrix(1,0,0,1,9.53972e-05,0.0139384)">
                        <path d="M54.961,160.792C54.805,160.909 54.688,161.417 54.688,161.925C54.688,162.589 55.039,162.901 56.055,163.253C56.836,163.526 57.695,163.604 58.008,163.487C58.867,163.175 58.711,161.417 57.852,160.909C56.992,160.479 55.352,160.401 54.961,160.792Z" style="fill:white;fill-rule:nonzero;"/>
                    </g>
                    <g transform="matrix(1,0,0,1,9.53972e-05,0.0139384)">
                        <path d="M70.781,161.378C69.414,162.745 70.977,164.308 72.969,163.605C74.336,163.136 74.844,162.237 74.18,161.456C73.633,160.792 71.406,160.753 70.781,161.378Z" style="fill:white;fill-rule:nonzero;"/>
                    </g>
                    <g transform="matrix(1,0,0,1,9.53972e-05,0.0139384)">
                        <path d="M63.594,161.964C62.813,162.159 62.422,163.019 62.734,163.839C63.281,165.284 66.797,164.815 66.797,163.331C66.797,161.964 65.586,161.417 63.594,161.964Z" style="fill:white;fill-rule:nonzero;"/>
                    </g>
                </g>
            </g>
        </g>
    </g>
</svg>
