<?xml version="1.0" encoding="UTF-8" standalone="no"?>
<!DOCTYPE svg PUBLIC "-//W3C//DTD SVG 1.1//EN" "http://www.w3.org/Graphics/SVG/1.1/DTD/svg11.dtd">
<svg width="100%" height="100%" viewBox="0 0 200 201" version="1.1" xmlns="http://www.w3.org/2000/svg" xmlns:xlink="http://www.w3.org/1999/xlink" xml:space="preserve" xmlns:serif="http://www.serif.com/" style="fill-rule:evenodd;clip-rule:evenodd;stroke-linejoin:round;stroke-miterlimit:2;">
    <g transform="matrix(1,0,0,1,0,-261)">
        <g id="instagram-white" transform="matrix(1,0,0,1,0,261.375)">
            <rect x="0" y="0" width="200" height="200" style="fill:none;"/>
            <clipPath id="_clip1">
                <rect x="0" y="0" width="200" height="200"/>
            </clipPath>
            <g clip-path="url(#_clip1)">
                <path id="template" d="M-0,52.056C-0,38.265 5.478,25.039 15.23,15.287C24.982,5.535 38.209,0.056 52,0.056L148,0.056C176.719,0.056 200,23.337 200,52.056C200,81.601 200,118.472 200,148.014C200,176.727 176.728,200.006 148.015,200.014C118.462,200.023 81.573,200.033 52.015,200.042C38.221,200.045 24.991,194.569 15.236,184.816C5.481,175.064 -0,161.835 -0,148.042C-0,118.489 -0,81.607 -0,52.056ZM100.05,138.8C121.461,138.8 138.869,121.4 138.869,100C138.869,78.6 121.461,61.2 100.05,61.2C78.639,61.2 61.23,78.6 61.23,100C61.23,121.4 78.639,138.8 100.05,138.8ZM159.279,48.8C159.78,47.6 160.08,46.3 160.08,45C160.08,43.7 159.78,42.4 159.279,41.2C158.779,39.9 158.079,38.9 157.178,37.9C156.678,37.5 156.178,37 155.678,36.7C155.077,36.3 154.477,36 153.877,35.8C153.276,35.5 152.676,35.3 151.976,35.2C148.774,34.5 145.272,35.6 142.971,37.9C142.071,38.9 141.37,39.9 140.87,41.2C140.37,42.4 140.07,43.7 140.07,45C140.07,46.3 140.37,47.6 140.87,48.8C141.37,50 142.071,51.1 142.971,52.1C144.872,54 147.373,55 150.075,55C151.375,55 152.676,54.7 153.877,54.2C155.077,53.7 156.178,53 157.178,52.1C158.079,51.1 158.779,50 159.279,48.8Z" style="fill:white;"/>
            </g>
        </g>
    </g>
</svg>
