<?xml version="1.0" encoding="UTF-8" standalone="no"?>
<!DOCTYPE svg PUBLIC "-//W3C//DTD SVG 1.1//EN" "http://www.w3.org/Graphics/SVG/1.1/DTD/svg11.dtd">
<svg width="100%" height="100%" viewBox="0 0 200 201" version="1.1" xmlns="http://www.w3.org/2000/svg" xmlns:xlink="http://www.w3.org/1999/xlink" xml:space="preserve" xmlns:serif="http://www.serif.com/" style="fill-rule:evenodd;clip-rule:evenodd;stroke-linejoin:round;stroke-miterlimit:2;">
    <g transform="matrix(1,0,0,1,-500,-261)">
        <g id="linkedin-white" transform="matrix(1,0,0,1,0,261.375)">
            <rect x="500" y="0" width="200" height="200" style="fill:none;"/>
            <clipPath id="_clip1">
                <rect x="500" y="0" width="200" height="200"/>
            </clipPath>
            <g clip-path="url(#_clip1)">
                <g transform="matrix(1,0,0,1,500,-0.000120446)">
                    <path d="M200,52.056C200,38.265 194.521,25.039 184.77,15.287C175.018,5.535 161.791,0.056 148,0.056L52,0.056C38.209,0.056 24.982,5.535 15.23,15.287C5.479,25.039 0,38.265 0,52.056L-0,148.015C-0,176.728 23.272,200.006 51.985,200.015C81.538,200.023 118.427,200.033 147.985,200.042C161.779,200.046 175.009,194.569 184.764,184.816C194.519,175.064 200,161.835 200,148.042L200,52.056ZM61.873,39.076C68.253,42.011 70.886,46.362 70.886,54.356C70.886,62.35 68.253,66.702 61.873,69.636C56.709,71.964 53.367,72.065 48,69.94C34.734,64.577 34.43,45.047 47.392,39.076C52.76,36.749 56.608,36.648 61.873,39.076ZM145.924,80.464C151.494,83.298 157.165,89.976 159.19,96.351C161.519,103.131 162.43,160.407 160.304,161.722C158.076,163.139 137.62,162.835 136.405,161.317C135.797,160.609 135.19,150.388 134.987,135.817C134.582,109.203 133.873,105.762 128.506,102.221C124.759,99.792 117.266,99.792 113.519,102.221C112,103.233 109.671,106.268 108.557,108.798C106.532,113.149 106.329,115.578 106.025,136.829C105.823,150.894 105.215,160.609 104.608,161.317C102.886,163.341 83.139,163.139 81.114,161.014C79.696,159.698 79.494,154.537 79.494,120.233C79.494,87.851 79.696,80.667 80.911,79.756C81.823,78.946 86.177,78.643 93.772,78.845L101.057,79.037C103.474,79.1 105.448,80.987 105.62,83.399C105.823,85.827 106.127,87.75 106.43,87.75C106.734,87.75 108.557,86.131 110.582,84.208C115.747,79.25 121.519,77.631 132.658,77.934C139.544,78.238 142.785,78.744 145.924,80.464ZM65.722,79.25C67.139,79.756 67.342,84.309 67.342,120.031C67.342,149.883 67.038,160.508 66.127,161.419C64.203,163.341 44.658,163.038 42.633,161.014C41.215,159.698 41.013,154.639 41.013,121.043C41.013,96.453 41.418,81.881 42.025,80.565C43.038,78.845 44.253,78.643 53.671,78.643C59.443,78.643 64.81,78.946 65.722,79.25Z" style="fill:white;fill-rule:nonzero;"/>
                </g>
            </g>
        </g>
    </g>
</svg>
