<?xml version="1.0" encoding="UTF-8" standalone="no"?>
<!DOCTYPE svg PUBLIC "-//W3C//DTD SVG 1.1//EN" "http://www.w3.org/Graphics/SVG/1.1/DTD/svg11.dtd">
<svg width="100%" height="100%" viewBox="0 0 665 151" version="1.1" xmlns="http://www.w3.org/2000/svg" xmlns:xlink="http://www.w3.org/1999/xlink" xml:space="preserve" xmlns:serif="http://www.serif.com/" style="fill-rule:evenodd;clip-rule:evenodd;stroke-linejoin:round;stroke-miterlimit:2;">
    <g id="layer1" transform="matrix(1,0,0,1,-16.4647,-437.176)">
        <path id="path278" d="M127.427,438.176C106.977,438.919 89.789,450.105 80.083,467.12L17.465,583.817L64.849,583.777L75.954,558.522L111.392,558.522L110.029,583.817L157.453,583.817L151.961,438.176L127.427,438.176L127.427,438.176ZM202.593,438.176L166.153,583.817L207.243,583.817L243.804,438.176L202.593,438.176ZM263.247,439.619L233.621,557.038C230.465,568.879 231.414,576.515 236.427,580.009C240.892,583.435 249.382,585.058 261.924,584.94C269.148,584.94 276.896,584.59 285.175,583.897L291.349,559.403L284.493,559.403C277.649,559.488 274.898,556.593 276.315,550.744L289.424,498.148L306.662,498.148L312.796,473.414L295.678,473.414L304.417,439.619L263.247,439.619ZM116.283,469.846L112.915,530.58L88.221,530.58L116.283,469.846ZM587.963,470.367C572.889,470.367 561.163,475.863 552.765,486.843L552.284,486.843L555.571,473.374L514.04,473.374L486.339,583.777L527.549,583.777L545.83,510.937C548.092,502.092 553.202,497.733 561.144,497.868C569.018,497.733 571.765,502.115 569.402,510.977L551.121,583.777L592.212,583.777L610.492,510.937C612.796,502.092 618.014,497.733 626.167,497.868C634.117,497.733 636.847,502.092 634.425,510.937L616.225,583.777L634.385,583.777C647.273,583.777 659.529,575.253 662.407,563.573L678.242,500.474C681.002,488.902 679.784,480.864 674.594,476.34C669.234,472.289 661.698,470.316 651.984,470.367C645.443,470.367 639.046,471.646 632.741,474.135C626.217,476.726 620.447,481.142 615.383,487.405C614.37,481.682 611.769,477.389 607.566,474.536C603.287,471.76 596.749,470.367 587.963,470.367ZM327.989,473.454L300.409,583.817L341.459,583.817L369.16,473.454L327.989,473.454ZM387.841,473.454L366.995,556.838C364.312,568.358 365.698,576.257 371.125,580.41C376.205,584.655 383.472,586.661 392.933,586.543C407.922,586.543 419.553,581.218 427.85,570.508L428.331,570.508L425.083,583.857L466.134,583.857L493.715,473.454L452.584,473.454L434.304,546.295C432.025,555.14 426.905,559.528 418.87,559.444C411.105,559.528 408.4,555.14 410.772,546.295L429.012,473.454L387.841,473.454Z" style="fill:rgb(168,150,99);fill-rule:nonzero;"/>
    </g>
</svg>
