<?xml version="1.0" encoding="UTF-8" standalone="no"?>
<!DOCTYPE svg PUBLIC "-//W3C//DTD SVG 1.1//EN" "http://www.w3.org/Graphics/SVG/1.1/DTD/svg11.dtd">
<svg width="100%" height="100%" viewBox="0 0 200 201" version="1.1" xmlns="http://www.w3.org/2000/svg" xmlns:xlink="http://www.w3.org/1999/xlink" xml:space="preserve" xmlns:serif="http://www.serif.com/" style="fill-rule:evenodd;clip-rule:evenodd;stroke-linejoin:round;stroke-miterlimit:2;">
    <g transform="matrix(1,0,0,1,-1000,-261)">
        <g id="coffee-white" transform="matrix(1,0,0,1,0,261.375)">
            <rect x="1000" y="0" width="200" height="200" style="fill:none;"/>
            <clipPath id="_clip1">
                <rect x="1000" y="0" width="200" height="200"/>
            </clipPath>
            <g clip-path="url(#_clip1)">
                <path d="M1148,0C1176.72,-0 1200,23.281 1200,52L1200,147.805C1200,176.524 1176.72,199.805 1148,199.805L1052.01,199.805C1023.29,199.805 1000.01,176.524 1000.01,147.805L1000.01,52C1000.01,23.281 1023.29,-0 1052.01,-0L1148,0ZM1137.59,140.017C1151.67,138.679 1162.7,126.805 1162.7,112.376C1162.7,97.947 1151.67,86.073 1137.59,84.735C1136.52,81.053 1134.54,77.663 1131.78,74.903C1127.46,70.592 1121.62,68.17 1115.52,68.17L1073.09,68.17C1066.99,68.17 1061.14,70.592 1056.83,74.903C1052.52,79.214 1050.1,85.061 1050.1,91.157L1050.1,133.594C1050.1,139.691 1052.52,145.538 1056.83,149.849C1061.14,154.159 1066.99,156.581 1073.09,156.581L1115.52,156.581C1121.62,156.581 1127.46,154.159 1131.78,149.849C1134.54,147.088 1136.52,143.699 1137.59,140.017ZM1138.51,129.783L1138.51,94.969C1146.61,96.623 1152.7,103.793 1152.7,112.376C1152.7,120.959 1146.61,128.128 1138.51,129.783ZM1074.81,57.3L1074.81,47.895C1074.81,45.135 1072.57,42.895 1069.81,42.895C1067.05,42.895 1064.81,45.135 1064.81,47.895L1064.81,57.3C1064.81,60.06 1067.05,62.3 1069.81,62.3C1072.57,62.3 1074.81,60.06 1074.81,57.3ZM1097.34,57.3L1097.34,47.895C1097.34,45.135 1095.1,42.895 1092.34,42.895C1089.58,42.895 1087.34,45.135 1087.34,47.895L1087.34,57.3C1087.34,60.06 1089.58,62.3 1092.34,62.3C1095.1,62.3 1097.34,60.06 1097.34,57.3ZM1119.87,57.3L1119.87,47.895C1119.87,45.135 1117.63,42.895 1114.87,42.895C1112.11,42.895 1109.87,45.135 1109.87,47.895L1109.87,57.3C1109.87,60.06 1112.11,62.3 1114.87,62.3C1117.63,62.3 1119.87,60.06 1119.87,57.3Z" style="fill:white;"/>
            </g>
        </g>
    </g>
</svg>
