<?xml version="1.0" encoding="UTF-8" standalone="no"?>
<!DOCTYPE svg PUBLIC "-//W3C//DTD SVG 1.1//EN" "http://www.w3.org/Graphics/SVG/1.1/DTD/svg11.dtd">
<svg width="100%" height="100%" viewBox="0 0 200 200" version="1.1" xmlns="http://www.w3.org/2000/svg" xmlns:xlink="http://www.w3.org/1999/xlink" xml:space="preserve" xmlns:serif="http://www.serif.com/" style="fill-rule:evenodd;clip-rule:evenodd;stroke-linejoin:round;stroke-miterlimit:2;">
    <g transform="matrix(1,0,0,1,-250,0)">
        <rect id="facebook" x="250" y="0" width="200" height="200" style="fill:none;"/>
        <clipPath id="_clip1">
            <rect id="facebook1" serif:id="facebook" x="250" y="0" width="200" height="200"/>
        </clipPath>
        <g clip-path="url(#_clip1)">
            <g transform="matrix(1,0,0,1,250,0.0281231)">
                <path d="M200,148.007C200,161.802 194.519,175.032 184.762,184.784C175.006,194.537 161.774,200.013 147.979,200.007C137.693,200.003 130,200 130,200C124.5,200 120,195.5 120,190L120,132.3C120,129.6 122.2,127.3 124.9,127.3L142.5,127C143.9,126.9 145.1,125.9 145.4,124.5L148.9,105.4C149.2,103.6 147.8,101.9 145.9,101.9L124.6,102.2C121.8,102.2 119.6,100 119.5,97.3L119.1,72.8C119.1,71.2 120.4,69.8 122.1,69.8L146.1,69.4C147.8,69.4 149.1,68.1 149.1,66.4L148.7,42.4C148.7,40.7 147.4,39.4 145.7,39.4L118.7,39.8C102.1,40.1 88.9,53.7 89.2,70.3L89.7,97.8C89.8,100.6 87.6,102.8 84.8,102.9L72.8,103.1C71.1,103.1 69.8,104.4 69.8,106.1L70.1,125.1C70.1,126.8 71.4,128.1 73.1,128.1L85.1,127.9C87.9,127.9 90.1,130.1 90.2,132.8L91.1,189.8C91.2,195.4 86.7,200 81.1,200C81.1,200 67.826,200.005 52.018,200.01C38.224,200.015 24.993,194.538 15.237,184.786C5.481,175.034 0,161.804 0,148.01L0,52.013C-0,23.3 23.272,0.022 51.985,0.013C81.538,0.005 118.427,-0.005 147.985,-0.014C161.779,-0.017 175.009,5.459 184.764,15.212C194.519,24.964 200,38.193 200,51.986L200,148.007Z" style="fill:rgb(16,16,16);fill-rule:nonzero;"/>
            </g>
        </g>
    </g>
</svg>
