<svg width="60" height="61" viewBox="0 0 60 61" fill="none" xmlns="http://www.w3.org/2000/svg">
<g clip-path="url(#clip0_512_320)">
<path d="M57.5004 13C57.5004 11.0109 56.7102 9.10322 55.3037 7.6967C53.8972 6.29018 51.9895 5.5 50.0004 5.5H49.5729C49.0539 4.03873 48.0956 2.77378 46.8294 1.87861C45.5632 0.98344 44.0511 0.501892 42.5004 0.5L17.5004 0.5C15.9497 0.501892 14.4376 0.98344 13.1714 1.87861C11.9051 2.77378 10.9469 4.03873 10.4279 5.5H10.0004C8.48506 5.50998 7.0083 5.97876 5.76464 6.84457C4.52097 7.71038 3.56875 8.93262 3.03341 10.3503C2.49807 11.7679 2.40472 13.3145 2.76566 14.7862C3.1266 16.258 3.9249 17.5859 5.05539 18.595L8.92539 49.55C9.30677 52.5716 10.7766 55.3504 13.0597 57.3661C15.3428 59.3818 18.2824 60.496 21.3279 60.5H38.6729C41.7183 60.4955 44.6576 59.3811 46.9405 57.3655C49.2235 55.3499 50.6935 52.5714 51.0754 49.55L54.9454 18.595C55.7449 17.8979 56.3864 17.0382 56.827 16.0734C57.2676 15.1085 57.4972 14.0607 57.5004 13ZM47.7929 35.5H39.7929C37.5629 22.2825 22.4254 22.29 20.1979 35.5H12.1979L10.3229 20.5H49.6679L47.7929 35.5ZM35.0004 38C34.7379 47.885 25.2629 47.8825 25.0004 38C25.2629 28.115 34.7504 28.1175 35.0004 38ZM10.0004 10.5H12.5004C13.1634 10.5 13.7993 10.2366 14.2682 9.76777C14.737 9.29893 15.0004 8.66304 15.0004 8C15.0004 7.33696 15.2638 6.70107 15.7326 6.23223C16.2015 5.76339 16.8374 5.5 17.5004 5.5H42.5004C43.1634 5.5 43.7993 5.76339 44.2682 6.23223C44.737 6.70107 45.0004 7.33696 45.0004 8C45.0004 8.66304 45.2638 9.29893 45.7326 9.76777C46.2015 10.2366 46.8374 10.5 47.5004 10.5H50.0004C50.6634 10.5 51.2993 10.7634 51.7682 11.2322C52.237 11.7011 52.5004 12.337 52.5004 13C52.5004 13.663 52.237 14.2989 51.7682 14.7678C51.2993 15.2366 50.6634 15.5 50.0004 15.5H10.0004C9.33735 15.5 8.70147 15.2366 8.23263 14.7678C7.76379 14.2989 7.50039 13.663 7.50039 13C7.50039 12.337 7.76379 11.7011 8.23263 11.2322C8.70147 10.7634 9.33735 10.5 10.0004 10.5ZM46.1129 48.93C45.8863 50.7436 45.0052 52.412 43.6352 53.6218C42.2652 54.8316 40.5006 55.4995 38.6729 55.5H21.3279C19.4998 55.5001 17.7346 54.8325 16.364 53.6226C14.9935 52.4128 14.1121 50.744 13.8854 48.93L12.8329 40.5H20.2029C22.4329 53.7175 37.5729 53.71 39.7979 40.5H47.1679L46.1129 48.93Z" fill="white"/>
</g>
<defs>
<clipPath id="clip0_512_320">
<rect width="60" height="60" fill="white" transform="translate(0 0.5)"/>
</clipPath>
</defs>
</svg>
