<svg width="49" height="49" viewBox="0 0 49 49" fill="none" xmlns="http://www.w3.org/2000/svg">
<g clip-path="url(#clip0_598_361)">
<path d="M38.5 2.49963H10.5C7.84881 2.50281 5.30712 3.5574 3.43244 5.43207C1.55776 7.30675 0.503176 9.84844 0.5 12.4996L0.5 36.4996C0.503176 39.1508 1.55776 41.6925 3.43244 43.5672C5.30712 45.4419 7.84881 46.4965 10.5 46.4996H38.5C41.1512 46.4965 43.6929 45.4419 45.5676 43.5672C47.4422 41.6925 48.4968 39.1508 48.5 36.4996V12.4996C48.4968 9.84844 47.4422 7.30675 45.5676 5.43207C43.6929 3.5574 41.1512 2.50281 38.5 2.49963ZM10.5 6.49963H38.5C39.6976 6.50199 40.867 6.86266 41.8579 7.53524C42.8488 8.20782 43.6157 9.16153 44.06 10.2736L28.744 25.5916C27.6169 26.7143 26.0908 27.3446 24.5 27.3446C22.9092 27.3446 21.3831 26.7143 20.256 25.5916L4.94 10.2736C5.3843 9.16153 6.15123 8.20782 7.14209 7.53524C8.13296 6.86266 9.30243 6.50199 10.5 6.49963ZM38.5 42.4996H10.5C8.9087 42.4996 7.38258 41.8675 6.25736 40.7423C5.13214 39.6171 4.5 38.0909 4.5 36.4996V15.4996L17.428 28.4196C19.3053 30.2921 21.8485 31.3437 24.5 31.3437C27.1515 31.3437 29.6947 30.2921 31.572 28.4196L44.5 15.4996V36.4996C44.5 38.0909 43.8679 39.6171 42.7426 40.7423C41.6174 41.8675 40.0913 42.4996 38.5 42.4996Z" fill="#272727"/>
</g>
<defs>
<clipPath id="clip0_598_361">
<rect width="48" height="48" fill="white" transform="translate(0.5 0.5)"/>
</clipPath>
</defs>
</svg>
