<svg width="64" height="59" viewBox="0 0 64 59" fill="none" xmlns="http://www.w3.org/2000/svg">
<path d="M32 0C14.6068 0 0.5 13.5425 0.5 30.2458C0.5 43.6094 9.52475 54.9465 22.0434 58.9465C23.6157 59.2263 24.125 58.2886 24.125 57.4922V51.8614C15.3628 53.6913 13.5384 48.2924 13.5384 48.2924C12.1051 44.7965 10.0393 43.8664 10.0393 43.8664C7.18062 41.9887 10.2571 42.029 10.2571 42.029C13.4202 42.2407 15.0845 45.1469 15.0845 45.1469C17.8933 49.7694 22.4529 48.4336 24.251 47.6598C24.5319 45.7064 25.3483 44.3705 26.2513 43.6169C19.2556 42.8482 11.9004 40.2546 11.9004 28.6679C11.9004 25.3636 13.1315 22.6667 15.1449 20.5495C14.8194 19.7858 13.7405 16.7083 15.452 12.5444C15.452 12.5444 18.098 11.7328 24.1171 15.6446C26.6292 14.9742 29.3225 14.639 32 14.6264C34.6775 14.639 37.3734 14.9742 39.8907 15.6446C45.9046 11.7328 48.5454 12.5444 48.5454 12.5444C50.2595 16.7108 49.1806 19.7883 48.8551 20.5495C50.8764 22.6667 52.097 25.3661 52.097 28.6679C52.097 40.2848 44.7286 42.8431 37.7146 43.5917C38.8434 44.5293 39.875 46.3693 39.875 49.1922V57.4922C39.875 58.2962 40.379 59.2414 41.9776 58.944C54.4857 54.9389 63.5 43.6043 63.5 30.2458C63.5 13.5425 49.3959 0 32 0Z" fill="black"/>
</svg>
