<svg width="30" height="30" viewBox="0 0 30 30" fill="none" xmlns="http://www.w3.org/2000/svg">
<g clip-path="url(#clip0_345_341)">
<path d="M17.6511 15.0004L29.4506 3.2022C30.1831 2.46975 30.1831 1.28222 29.4506 0.549826C28.7182 -0.182624 27.5307 -0.182624 26.7983 0.549826L15 12.3493L3.20171 0.549826C2.46926 -0.182624 1.28173 -0.182624 0.549338 0.549826C-0.183054 1.28228 -0.183113 2.46981 0.549338 3.2022L12.3488 15.0004L0.549338 26.7987C-0.183113 27.5312 -0.183113 28.7187 0.549338 29.4511C1.28179 30.1835 2.46932 30.1836 3.20171 29.4511L15 17.6516L26.7982 29.4511C27.5307 30.1836 28.7182 30.1836 29.4506 29.4511C30.183 28.7187 30.183 27.5311 29.4506 26.7987L17.6511 15.0004Z" fill="#878787"/>
</g>
<defs>
<clipPath id="clip0_345_341">
<rect width="30" height="30" fill="white"/>
</clipPath>
</defs>
</svg>
