<svg width="80" height="81" viewBox="0 0 80 81" fill="none" xmlns="http://www.w3.org/2000/svg">
<g clip-path="url(#clip0_297_309)">
<path fill-rule="evenodd" clip-rule="evenodd" d="M74.2061 0.5H6.03C2.76875 0.5 0 3.07875 0 6.25641V74.7406C0 77.9212 1.81703 80.5 5.07688 80.5H73.253C76.5184 80.5 80 77.9212 80 74.7406V6.25641C80 3.07875 77.4702 0.5 74.2061 0.5ZM30.4755 30.9755H41.2455V36.4655H41.3634C43.0048 33.5053 47.8542 30.5003 53.8511 30.5003C65.3597 30.5003 68.572 36.6109 68.572 47.9281V69.072H57.1427V50.013C57.1427 44.9463 55.1197 40.5 50.3884 40.5C44.6434 40.5 41.9048 44.3889 41.9048 50.7747V69.072H30.4755V30.9755ZM11.428 69.072H22.8573V30.9755H11.428V69.072ZM24.2856 17.6427C24.2856 21.5892 21.0892 24.7856 17.1427 24.7856C13.1961 24.7856 9.99969 21.5892 9.99969 17.6427C9.99969 13.6961 13.1961 10.4997 17.1427 10.4997C21.0892 10.4997 24.2856 13.6961 24.2856 17.6427Z" fill="white"/>
</g>
<defs>
<clipPath id="clip0_297_309">
<rect width="80" height="80" fill="white" transform="translate(0 0.5)"/>
</clipPath>
</defs>
</svg>
