<svg width="131" height="132" viewBox="0 0 131 132" fill="none" xmlns="http://www.w3.org/2000/svg">
<path d="M77.0765 66.0004L128.601 14.4813C131.8 11.2829 131.8 6.09738 128.601 2.89927C125.403 -0.299104 120.217 -0.299104 117.019 2.89927L65.4999 54.4237L13.9808 2.89927C10.7824 -0.299104 5.59689 -0.299104 2.39878 2.89927C-0.799336 6.09764 -0.799592 11.2832 2.39878 14.4813L53.9232 66.0004L2.39878 117.52C-0.799592 120.718 -0.799592 125.904 2.39878 129.102C5.59715 132.3 10.7827 132.3 13.9808 129.102L65.4999 77.577L117.019 129.102C120.217 132.3 125.403 132.3 128.601 129.102C131.799 125.903 131.799 120.718 128.601 117.52L77.0765 66.0004Z" fill="white"/>
</svg>
