<?xml version="1.0" encoding="UTF-8"?><svg id="Layer_2" xmlns="http://www.w3.org/2000/svg" viewBox="0 0 1262.17 297.2"><defs><style>.cls-1{fill:#00003d;}</style></defs><g id="Layer_1-2"><path class="cls-1" d="M482.17,208.81V88.39h60.55v13.25h-45.42v39.57h42.5v12.9h-42.5v41.46h45.42v13.25h-60.55Zm128.51-49.72l15.83-56.94,15.83,56.94h-31.66Zm-13.76,49.72l10.32-36.99h38.71l10.32,36.99h15.83l-35.78-120.42h-18.92l-35.78,120.42h15.31Zm118.53-74.49c10.84,0,16,5.85,16,18.41v7.05h-31.99v-7.05c0-12.56,5.16-18.41,16-18.41Zm-30.8,19.44v25.81c0,20.12,10.84,30.96,30.45,30.96s29.94-8.77,30.63-27.35h-14.28c-.51,11.18-5.5,15.83-16.34,15.83s-15.65-6.02-15.65-18.58v-8.61h46.62v-18.41c0-19.95-10.66-30.62-30.62-30.62s-30.8,10.84-30.8,30.96Zm119.23-15.14v-14.8h-1.55c-10.5,0-17.72,4.65-21.84,13.42v-12.73h-13.94v84.3h14.8v-51.1c0-11.18,5.33-19.44,19.09-19.44,1.38,0,2.75,.17,3.44,.35Zm40.59,60.22c-10.83,0-15.83-5.86-15.83-18.41v-27.53c0-12.55,4.99-18.4,15.83-18.4s15.83,5.85,15.83,18.4v27.53c0,12.55-4.99,18.41-15.83,18.41Zm0,11.69c19.96,0,30.63-10.83,30.63-30.96v-25.81c0-20.12-10.66-30.96-30.63-30.96s-30.62,10.84-30.62,30.96v25.81c0,20.13,10.66,30.96,30.62,30.96Zm62.8-66.23c0-6.71,4.64-10.15,12.73-10.15,9.63,0,13.58,4.64,13.58,14.79h14.12c0-17.89-8.27-26.15-27.7-26.15-17.38,0-27.02,8.61-27.02,23.57,0,13.93,8.94,18.92,20.3,24.43l8.77,4.3c8.94,4.29,12.05,6.36,12.05,13.25,0,7.4-5.16,10.83-14.11,10.83-10.33,0-14.8-4.81-14.8-15.48h-14.11c0,18.41,8.94,26.84,28.91,26.84,18.06,0,28.38-8.94,28.38-24.26,0-13.93-8.95-18.92-20.3-24.43l-8.77-4.3c-8.94-4.3-12.04-6.36-12.04-13.25Zm106.49,36.13c0,12.04-4.65,17.55-14.97,17.55-11.36,0-16.69-7.58-16.69-20.13v-23.23c0-12.55,5.33-20.13,16.69-20.13,10.32,0,14.97,5.51,14.97,17.55v28.39Zm14.79-.35v-27.7c0-19.27-9.8-29.59-26.49-29.59-9.64,0-16.69,4.13-20.81,12.04v-10.32h-13.94v115.26h14.8v-40.6c4.13,6.88,11.01,10.5,19.95,10.5,16.69,0,26.49-10.32,26.49-29.59Zm44.73,18.07c-8.94,0-13.42-4.65-13.42-13.94v-2.58c0-9.8,6.02-13.59,22.36-13.59h7.75v12.39c0,11.53-5.85,17.73-16.69,17.73Zm-3.27,11.53c9.8,0,17.03-3.96,20.98-11.53v10.66h13.76v-59.01c0-18.41-9.46-27.01-29.24-27.01-18.76,0-28.05,8.26-28.38,25.29h14.28c.18-9.12,4.99-13.94,14.11-13.94,9.8,0,14.45,4.99,14.45,15.66v6.54h-8.61c-24.77,0-36.3,8.25-36.3,26.15v2.58c0,14.97,9.8,24.6,24.95,24.6Zm85.5,.86c20.13,0,29.24-9.46,29.24-30.62h-14.28c0,13.59-4.47,18.92-14.97,18.92s-15.66-5.86-15.66-18.41v-27.53c0-12.55,4.99-18.4,15.66-18.4s14.8,4.64,14.97,17.89h14.28c-.17-20.64-8.94-29.59-29.24-29.59s-30.45,10.84-30.45,30.96v25.81c0,20.13,10.66,30.96,30.45,30.96Zm76.04-76.21c10.83,0,16,5.85,16,18.41v7.05h-31.99v-7.05c0-12.56,5.16-18.41,16-18.41Zm-30.8,19.44v25.81c0,20.12,10.84,30.96,30.45,30.96s29.94-8.77,30.63-27.35h-14.28c-.51,11.18-5.5,15.83-16.34,15.83s-15.65-6.02-15.65-18.58v-8.61h46.62v-18.41c0-19.95-10.66-30.62-30.62-30.62s-30.8,10.84-30.8,30.96Zm-777.25,56.77c12.22,0,23.23-2.58,33.38-7.91v-61.41h-36.99v12.9h22.02v39.91c-5.16,2.24-11.87,3.61-18.23,3.61-18.59,0-25.64-8.94-25.64-32.16v-41.47c0-15.31,8.61-24.43,23.06-24.43s20.98,6.71,21.33,21.16h15.66c-.52-23.23-12.22-34.06-36.99-34.06s-38.2,13.42-38.2,37.85v40.25c0,31.83,12.39,45.76,40.6,45.76ZM181.95,109.91c0-16.88,11.42-33.29,17.67-30.17,7.1,3.56-5.32,19.47-17.67,30.17m-77.81,6.17c0-13.58,13.41-39.41,21.61-36.69,9.67,3.22-8.02,29.27-21.61,36.69Zm-13.58,97.15c-6.17,.28-10.28-3.67-10.28-10.25,0-17.7,24.53-34.59,43.06-43.66-3.29,24.7-11.63,52.94-32.78,53.91Zm113.2-57.63c-13.98,0-24.7,10.3-24.7,22.64,0,10.3,6.17,18.52,14.41,18.52,2.89,0,5.75-1.64,5.75-5.35,0-5.35-7.09-6.65-6.54-14.66,.35-5.28,5.32-8.81,10.25-8.81,9.88,0,14.5,9.57,14.5,19.45-.42,15.23-11.62,25.83-24.79,25.83-17.29,0-28.39-16.47-28.39-34.18,0-26.34,17.28-36.63,26.33-39.1,.09,0,23.68,4.21,22.94-6.19-.32-4.56-7.12-6.31-12.05-6.52-5.47-.22-10.96,1.75-10.96,1.75-2.88-1.45-4.87-4.28-6.09-7.56,16.87-12.77,28.81-25.11,28.81-39.11,0-7.41-4.94-14-14.41-14-16.87,0-29.64,21.4-29.64,40.75,0,3.29,0,6.59,.83,9.47-10.7,7.82-18.66,12.67-33.07,21.32,0-1.81,.38-6.44,1.59-12.48,4.94-5.35,11.72-13.36,11.72-19.54,0-2.88-1.64-5.35-4.94-5.35-8.23,0-14.4,12.34-16.05,20.99-3.71,4.53-11.11,10.3-17.29,10.3-4.94,0-6.58-4.54-7-6.18,15.65-5.36,34.99-26.76,34.99-46.11,0-4.12-1.65-13.18-13.99-13.18-18.53,0-34.17,27.58-34.17,48.99-6.59,0-9.05-7-9.05-12.35s2.06-10.71,2.06-12.35-.83-3.71-3.3-3.71c-6.18,0-9.88,8.23-9.88,17.7,.42,13.17,9.06,21.41,20.59,22.23,1.65,7.82,8.65,15.23,17.29,15.23,5.36,0,11.94-1.64,16.47-5.76-.42,2.89-.82,5.35-1.24,7.82-18.11,9.47-31.28,16.06-43.22,26.75-9.46,8.65-14.82,20.17-14.82,29.24,0,12.35,7.82,23.86,23.87,23.86,18.94,0,33.34-15.22,40.34-36.22,3.3-9.88,4.62-24.25,5.44-37.43,18.94-10.7,27.92-16.9,37.78-23.9,1.24,2.06,2.49,3.71,4.12,4.94-8.64,4.53-29.22,17.29-29.22,47.33,0,21.41,14.41,45.28,42.81,45.28,23.46,0,39.52-19.33,39.52-37.86,0-16.88-9.47-32.52-27.59-32.52Zm70.77,35.35c-.07,.13-.31,.32-.76,.16-.35-.13-.46-.31-.45-.53,.02-.24,4.98-14.88,4.95-31.69-.06-18.12-7.42-29.23-16.87-29.23-5.77,0-9.88,4.12-9.88,10.29,0,11.12,13.58,11.94,13.58,36.23,0,9.88-2.06,19.33-5.35,29.64-15.23,51.45-63.81,75.32-111.14,75.32-21.82,0-37.33-4.48-41.95-6.55-.19-.09-.34-.46-.2-.82,.11-.29,.43-.5,.6-.42,1.88,.74,15.19,4.92,31.65,4.92,18.11,0,28.82-7.4,28.82-16.48,0-5.75-4.53-10.28-10.3-10.28-11.11,0-11.94,13.99-35.81,13.99-10.29,0-19.34-2.05-30.05-5.35-51.04-15.64-75.37-63.81-75.33-111.56,.02-23.25,6.53-41.77,6.64-41.95,.08-.12,.37-.25,.73-.12,.37,.12,.47,.44,.43,.53-.6,1.93-4.92,15.2-4.92,31.66,0,18.12,7.41,28.82,16.87,28.82,5.35,0,9.88-4.12,9.88-9.87,0-11.12-13.58-12.35-13.58-36.23,0-10.3,2.06-19.35,5.35-30.05C53.1,40.34,101.26,16.42,148.61,16.05c22-.17,41.26,6.41,41.98,6.99,.13,.11,.27,.4,.13,.74-.15,.38-.41,.43-.54,.41-.23-.03-12.75-5.26-31.7-5.26-17.69,0-28.8,7.4-28.8,16.88,0,5.35,4.11,9.87,10.28,9.87,11.12,0,11.95-13.58,35.81-13.58,10.3,0,19.34,2.06,30.05,5.35,51.47,15.64,74.89,64.22,75.33,111.14,.23,24.04-6.55,42.24-6.61,42.36ZM148.61,6.99C70.4,6.99,6.99,70.39,6.99,148.6s63.4,141.6,141.62,141.6,141.59-63.38,141.59-141.6S226.81,6.99,148.61,6.99Zm0,290.21C66.68,297.2,0,230.93,0,148.6S66.68,0,148.61,0s148.6,66.68,148.6,148.6-66.7,148.6-148.6,148.6Z"/></g></svg>
