<?xml version="1.0" encoding="UTF-8"?>
<svg version="1.1" xmlns="http://www.w3.org/2000/svg" width="129" height="129">
<path d="M0 0 C2.3941573 3.27621525 2.54485833 7.05543885 3 11 C4.258125 10.608125 5.51625 10.21625 6.8125 9.8125 C10.70535714 8.83928571 10.70535714 8.83928571 13.0625 10.125 C14.25862062 12.51724125 13.7396585 13.50688533 13 16 C13.87398437 16.09474609 13.87398437 16.09474609 14.765625 16.19140625 C25.26659701 17.75994767 35.54994708 23.39235895 42 32 C42 32.66 42 33.32 42 34 C43.485 34.495 43.485 34.495 45 35 C49.98015925 41.76990398 53.63090312 49.18717085 54.875 57.5 C55.47253504 61.19065761 56.11151247 63.6255068 58.4375 66.5625 C70.22598391 82.37631988 64 113.07337288 64 127 C23.41 127 -17.18 127 -59 127 C-60.16017017 123.51948949 -59.78230459 121.55370232 -59.3125 117.9375 C-58.78923449 112.14927907 -59.48226447 108.32523485 -61.9921875 103.12109375 C-65.91417768 94.86667257 -65.59280413 81.7229583 -63.0234375 73.109375 C-61.81652508 69.98473057 -60.49070535 66.99849615 -59 64 C-58.30615251 62.48205206 -57.61811507 60.96142697 -56.9375 59.4375 C-56.61394531 58.73496094 -56.29039063 58.03242187 -55.95703125 57.30859375 C-54.82792195 54.5849056 -53.98873111 51.81867805 -53.125 49 C-49.24234218 37.20269355 -40.12660554 25.78583488 -29 20 C-25.85164295 18.973808 -22.70432391 18.00463537 -19.51171875 17.125 C-16.82286322 16.26944265 -16.82286322 16.26944265 -16.14453125 13.875 C-16.09683594 13.25625 -16.04914062 12.6375 -16 12 C-16.99 11.67 -17.98 11.34 -19 11 C-19.73046875 8.93359375 -19.73046875 8.93359375 -20.1875 6.4375 C-20.34605469 5.61121094 -20.50460938 4.78492188 -20.66796875 3.93359375 C-20.77753906 3.29550781 -20.88710938 2.65742187 -21 2 C-17.1496895 -0.56687367 -15.41430237 0.16711276 -11 1 C-10.505 2.485 -10.505 2.485 -10 4 C-9.34 4 -8.68 4 -8 4 C-7.896875 3.360625 -7.79375 2.72125 -7.6875 2.0625 C-7.460625 1.381875 -7.23375 0.70125 -7 0 C-3.87438528 -1.04187157 -2.95319818 -1.23843794 0 0 Z " fill="#FCDC8E" transform="translate(65,2)"/>
<path d="M0 0 C2.3941573 3.27621525 2.54485833 7.05543885 3 11 C4.258125 10.608125 5.51625 10.21625 6.8125 9.8125 C10.70535714 8.83928571 10.70535714 8.83928571 13.0625 10.125 C14.25862062 12.51724125 13.7396585 13.50688533 13 16 C13.87398437 16.09474609 13.87398437 16.09474609 14.765625 16.19140625 C25.26659701 17.75994767 35.54994708 23.39235895 42 32 C42 32.66 42 33.32 42 34 C43.485 34.495 43.485 34.495 45 35 C49.98015925 41.76990398 53.63090312 49.18717085 54.875 57.5 C55.61374578 62.06284158 56.8359317 64.58038866 59.69824219 68.12280273 C64.9541094 75.7020156 64.46840236 85.41354061 64.39111328 94.24926758 C64.37505163 96.43048883 64.39102107 98.60985096 64.41015625 100.79101562 C64.4221703 108.77253994 64.1071856 116.51615257 61 124 C60.34 124.66 59.68 125.32 59 126 C58.87436168 119.46680758 58.87436168 119.46680758 59.4934082 117.16674805 C60.72457342 111.9009209 60.18485126 106.19208233 60.1875 100.8125 C60.19974609 99.52279297 60.21199219 98.23308594 60.22460938 96.90429688 C60.24694078 82.33677984 57.27443711 70.84523918 47 60 C46.34 59.67 45.68 59.34 45 59 C45 59.99 45 60.98 45 62 C40.25 61.125 40.25 61.125 38 60 C38.0314209 61.23133667 38.0314209 61.23133667 38.06347656 62.48754883 C38.1323958 65.58695174 38.18215621 68.68595915 38.21972656 71.78588867 C38.24930134 73.76572908 38.30017533 75.74521501 38.3515625 77.72460938 C38.43505538 85.96953154 37.47354227 92.49194034 34 100 C33.67 100 33.34 100 33 100 C32.8503283 95.80919243 32.79701402 92.68507769 34 88.625 C35.64620813 82.36736411 35.20981712 75.92000392 35.125 69.5 C35.11597656 68.200625 35.10695313 66.90125 35.09765625 65.5625 C35.07421733 62.37480701 35.0414044 59.1875018 35 56 C39.875 56.875 39.875 56.875 41 58 C41.33 56.68 41.66 55.36 42 54 C44.16874252 54.50603992 45.99967627 54.99983813 48 56 C40.99981606 39.8359389 35.24367036 32.28424152 19 25 C17.81083984 24.45279297 17.81083984 24.45279297 16.59765625 23.89453125 C11.09931203 21.57542765 5.93704762 20.93198268 0.25 23 C-0.4925 23.33 -1.235 23.66 -2 24 C-3.32 24 -4.64 24 -6 24 C-6 24.66 -6 25.32 -6 26 C-6.99 26 -7.98 26 -9 26 C-9.33 24.35 -9.66 22.7 -10 21 C-23.08033544 23.76440079 -34.05723284 27.83639204 -41.6875 39.25 C-47.12991734 47.70764167 -48.46414766 55.38809446 -48.25 65.3125 C-48.24484375 66.28767578 -48.2396875 67.26285156 -48.234375 68.26757812 C-48.18954964 72.34948726 -48.13394089 76.05677168 -47 80 C-44.03 79.01 -44.03 79.01 -41 78 C-41.66 77.525625 -42.32 77.05125 -43 76.5625 C-45.89658976 72.85124437 -45.34969446 69.54602793 -45 65 C-44.34 65 -43.68 65 -43 65 C-43 64.34 -43 63.68 -43 63 C-41.125 63.3125 -41.125 63.3125 -39 64 C-36.32072659 68.01891012 -36.84398752 70.24161923 -37 75 C-36.34 75 -35.68 75 -35 75 C-34.505 73.515 -34.505 73.515 -34 72 C-28.66248213 68.10805989 -24.53952774 67.13108934 -18 68 C-14.46996649 69.13801688 -11.20074695 70.67999864 -7.875 72.3125 C-6.1642264 73.12144046 -4.45329188 73.9300407 -2.7421875 74.73828125 C-1.93749023 75.12709473 -1.13279297 75.5159082 -0.30371094 75.91650391 C1.79418545 76.90319998 3.90660857 77.79767364 6.0546875 78.66796875 C9 80 9 80 10 82 C10.36600149 85.87961575 10.41872209 88.2497896 8.5 91.6875 C5.30124082 94.64635224 1.94432947 96.23583702 -2 98 C-2.59296875 98.34417969 -3.1859375 98.68835938 -3.796875 99.04296875 C-9.06131891 101.32982825 -15.32176135 101.39593206 -21 102 C-21.73734375 102.08765625 -22.4746875 102.1753125 -23.234375 102.265625 C-30.24522499 102.69992544 -37.3407863 99.94227066 -44 98 C-44.29003906 98.58394531 -44.58007812 99.16789062 -44.87890625 99.76953125 C-45.56149116 101.12756604 -46.25421698 102.48064506 -46.96484375 103.82421875 C-50.83084054 111.2301644 -53.08443942 118.89570523 -55 127 C-56.65 126.67 -58.3 126.34 -60 126 C-59.88140625 125.03320312 -59.7628125 124.06640625 -59.640625 123.0703125 C-58.91048863 115.69593517 -58.62185313 109.87394069 -61.9921875 103.05078125 C-65.98906359 94.91760317 -65.56383645 81.62584661 -63.0234375 73.109375 C-61.81652508 69.98473057 -60.49070535 66.99849615 -59 64 C-58.30615251 62.48205206 -57.61811507 60.96142697 -56.9375 59.4375 C-56.61394531 58.73496094 -56.29039063 58.03242187 -55.95703125 57.30859375 C-54.82792195 54.5849056 -53.98873111 51.81867805 -53.125 49 C-49.24234218 37.20269355 -40.12660554 25.78583488 -29 20 C-25.85164295 18.973808 -22.70432391 18.00463537 -19.51171875 17.125 C-16.82286322 16.26944265 -16.82286322 16.26944265 -16.14453125 13.875 C-16.09683594 13.25625 -16.04914062 12.6375 -16 12 C-16.99 11.67 -17.98 11.34 -19 11 C-19.73046875 8.93359375 -19.73046875 8.93359375 -20.1875 6.4375 C-20.34605469 5.61121094 -20.50460938 4.78492188 -20.66796875 3.93359375 C-20.77753906 3.29550781 -20.88710938 2.65742187 -21 2 C-17.1496895 -0.56687367 -15.41430237 0.16711276 -11 1 C-10.505 2.485 -10.505 2.485 -10 4 C-9.34 4 -8.68 4 -8 4 C-7.896875 3.360625 -7.79375 2.72125 -7.6875 2.0625 C-7.460625 1.381875 -7.23375 0.70125 -7 0 C-3.87438528 -1.04187157 -2.95319818 -1.23843794 0 0 Z " fill="#8B6636" transform="translate(65,2)"/>
<path d="M0 0 C4.11376995 0.84711548 7.03821886 2.74025608 10.484375 5.07421875 C13.51019374 6.9806312 16.52200349 7.9192673 19.91796875 8.9609375 C22.6134515 9.82582665 24.72621214 10.77251361 26.90234375 12.59765625 C27.52734375 14.97265625 27.52734375 14.97265625 26.90234375 17.59765625 C22.3592563 23.80654243 15.63414688 25.82897919 8.375 27.32421875 C-3.94103209 29.23072527 -15.38778892 29.75135141 -26.09765625 22.59765625 C-27.859375 21.1015625 -27.859375 21.1015625 -29.09765625 19.59765625 C-29.28515625 16.91015625 -29.28515625 16.91015625 -29.09765625 14.59765625 C-22.59765625 10.59765625 -22.59765625 10.59765625 -18.09765625 10.59765625 C-18.09765625 11.58765625 -18.09765625 12.57765625 -18.09765625 13.59765625 C-17.10765625 13.26765625 -16.11765625 12.93765625 -15.09765625 12.59765625 C-14.76765625 11.93765625 -14.43765625 11.27765625 -14.09765625 10.59765625 C-13.43765625 10.59765625 -12.77765625 10.59765625 -12.09765625 10.59765625 C-12.36578125 10.06140625 -12.63390625 9.52515625 -12.91015625 8.97265625 C-13.09765625 6.59765625 -13.09765625 6.59765625 -11.34765625 3.34765625 C-8.05926823 -0.22311412 -4.66108568 -0.24400314 0 0 Z " fill="#FAEAC4" transform="translate(45.09765625,72.40234375)"/>
<path d="M0 0 C0.66 0.99 1.32 1.98 2 3 C1.24976563 3.15855469 0.49953125 3.31710938 -0.2734375 3.48046875 C-14.27157623 6.67148022 -23.58818379 11.7715224 -31.38671875 23.890625 C-35.45414263 31.73001823 -36.43957371 38.52694342 -36.25 47.3125 C-36.24484375 48.28767578 -36.2396875 49.26285156 -36.234375 50.26757812 C-36.18954964 54.34948726 -36.13394089 58.05677168 -35 62 C-33.02 61.34 -31.04 60.68 -29 60 C-29.66 59.525625 -30.32 59.05125 -31 58.5625 C-33.89658976 54.85124437 -33.34969446 51.54602793 -33 47 C-32.34 47 -31.68 47 -31 47 C-31 46.34 -31 45.68 -31 45 C-29.125 45.3125 -29.125 45.3125 -27 46 C-24.32072659 50.01891012 -24.84398752 52.24161923 -25 57 C-24.34 57 -23.68 57 -23 57 C-22.67 56.01 -22.34 55.02 -22 54 C-16.66248213 50.10805989 -12.53952774 49.13108934 -6 50 C-2.46996649 51.13801688 0.79925305 52.67999864 4.125 54.3125 C5.8357736 55.12144046 7.54670812 55.9300407 9.2578125 56.73828125 C10.0626709 57.12709473 10.8675293 57.5159082 11.69677734 57.91650391 C13.79212469 58.90221003 15.90185113 59.79735753 18.046875 60.66796875 C21 62 21 62 22.125 64 C22 66 22 66 20.5625 67.75 C20.046875 68.1625 19.53125 68.575 19 69 C19 67.68 19 66.36 19 65 C15.59589082 63.60768868 12.16870676 62.37141258 8.6875 61.1875 C5.07511347 59.90459637 2.11596357 58.53543484 -1 56.3125 C-5.63623643 53.16372276 -10.52684922 53.11067033 -16 53 C-16.28875 53.598125 -16.5775 54.19625 -16.875 54.8125 C-18 57 -18 57 -20 60 C-20 60.99 -20 61.98 -20 63 C-20.66 63 -21.32 63 -22 63 C-22.33 63.99 -22.66 64.98 -23 66 C-23.99 66 -24.98 66 -26 66 C-26 65.01 -26 64.02 -26 63 C-27.29217171 63.47780303 -28.58372046 63.95729106 -29.875 64.4375 C-30.59429688 64.70433594 -31.31359375 64.97117187 -32.0546875 65.24609375 C-34.03648845 65.97916854 -34.03648845 65.97916854 -36 67 C-36.33498301 69.33165034 -36.33498301 69.33165034 -36 72 C-34.10415891 74.31377147 -34.10415891 74.31377147 -32 76 C-32.99 76.495 -32.99 76.495 -34 77 C-34.70674629 78.31252882 -35.36184656 79.65278717 -36 81 C-36.67951594 82.2128412 -37.36762855 83.42089063 -38.0625 84.625 C-39.07903244 86.39573392 -40.08689137 88.17378275 -41 90 C-44 89 -44 89 -44.94921875 87.3125 C-48.84290143 75.11641456 -48.78262603 56.8247853 -44.1171875 44.70703125 C-43 43 -43 43 -40 41 C-39.34427282 38.88442748 -39.34427282 38.88442748 -39.0625 36.4375 C-38.17052108 31.32348751 -36.82403891 26.41193268 -34 22 C-33.01 21.67 -32.02 21.34 -31 21 C-30.95875 20.13375 -30.9175 19.2675 -30.875 18.375 C-29.73476841 13.97696388 -27.71456363 11.58217933 -24 9 C-22.00889599 8.61709538 -20.00899487 8.27395385 -18 8 C-16.56362302 6.04836882 -16.56362302 6.04836882 -16 4 C-15.01 4 -14.02 4 -13 4 C-13 3.34 -13 2.68 -13 2 C-8.55493675 0.57757976 -4.72271651 -0.54915308 0 0 Z " fill="#95794C" transform="translate(53,20)"/>
<path d="M0 0 C4.21073233 1.50383297 5.83237117 4.20664956 8 8 C8 8.99 8 9.98 8 11 C6.58461283 11.33872513 5.16762037 11.67074624 3.75 12 C2.96109375 12.185625 2.1721875 12.37125 1.359375 12.5625 C-1 13 -1 13 -5 13 C-5 13.66 -5 14.32 -5 15 C-5.598125 15.268125 -6.19625 15.53625 -6.8125 15.8125 C-9.01728726 16.86569131 -9.01728726 16.86569131 -10.4375 18.5 C-12 20 -12 20 -14.375 20.8125 C-18.01255544 22.45806079 -19.69043313 24.79226823 -22 28 C-22.36784131 29.3242287 -22.71202981 30.65613912 -23 32 C-23.99 32.66 -24.98 33.32 -26 34 C-28.27142685 38.72300134 -30.02909559 43.76399141 -30.5 49 C-30.665 49.99 -30.83 50.98 -31 52 C-31.64582031 52.44859375 -32.29164062 52.8971875 -32.95703125 53.359375 C-35.63010491 55.50601159 -35.7153316 56.90274682 -36.1875 60.25 C-36.39439453 61.61898437 -36.39439453 61.61898437 -36.60546875 63.015625 C-36.73566406 64.00046875 -36.86585937 64.9853125 -37 66 C-37.17660156 67.10214844 -37.35320313 68.20429687 -37.53515625 69.33984375 C-38.78492184 79.18043498 -39.586608 90.91094194 -35 100 C-34.34 100.33 -33.68 100.66 -33 101 C-32.62875 99.6696875 -32.62875 99.6696875 -32.25 98.3125 C-30.95735126 94.88698085 -29.28353758 92.81636302 -27 90 C-27 89.01 -27 88.02 -27 87 C-24.04930665 87.41172465 -21.41231046 87.82516385 -18.66015625 88.9921875 C-7.58637888 93.18753928 6.99756657 91.22595234 17.75 86.9375 C19.16944051 86.29778617 20.58661499 85.65298388 22 85 C22.99 84.67 23.98 84.34 25 84 C26.12516085 82.16715557 26.12516085 82.16715557 27 80 C27.66666667 78.66666667 28.33333333 77.33333333 29 76 C29.33 76.33 29.66 76.66 30 77 C29.85427637 80.86167606 29.71345071 83.21750568 27.0625 86.125 C26.051875 86.74375 25.04125 87.3625 24 88 C23.33097656 88.4228125 22.66195312 88.845625 21.97265625 89.28125 C14.66586364 93.46350733 7.2943048 94.3166092 -1 95 C-2.09441406 95.12568359 -2.09441406 95.12568359 -3.2109375 95.25390625 C-10.22041609 95.72834694 -17.34208799 92.941891 -24 91 C-24.29003906 91.58394531 -24.58007812 92.16789062 -24.87890625 92.76953125 C-25.56149116 94.12756604 -26.25421698 95.48064506 -26.96484375 96.82421875 C-30.83084054 104.2301644 -33.08443942 111.89570523 -35 120 C-36.65 119.67 -38.3 119.34 -40 119 C-39.88140625 118.03320312 -39.7628125 117.06640625 -39.640625 116.0703125 C-38.91048863 108.69593517 -38.62185313 102.87394069 -41.9921875 96.05078125 C-45.98906359 87.91760317 -45.56383645 74.62584661 -43.0234375 66.109375 C-41.81652508 62.98473057 -40.49070535 59.99849615 -39 57 C-38.30615251 55.48205206 -37.61811507 53.96142697 -36.9375 52.4375 C-36.61394531 51.73496094 -36.29039063 51.03242187 -35.95703125 50.30859375 C-34.82792195 47.5849056 -33.98873111 44.81867805 -33.125 42 C-29.24234218 30.20269355 -20.12660554 18.78583488 -9 13 C-5.85164295 11.973808 -2.70432391 11.00463537 0.48828125 10.125 C3.17713678 9.26944265 3.17713678 9.26944265 3.85546875 6.875 C3.90316406 6.25625 3.95085938 5.6375 4 5 C3.01 4.67 2.02 4.34 1 4 C0.3125 1.9375 0.3125 1.9375 0 0 Z " fill="#926E3C" transform="translate(45,9)"/>
<path d="M0 0 C2.3941573 3.27621525 2.54485833 7.05543885 3 11 C4.258125 10.608125 5.51625 10.21625 6.8125 9.8125 C10.70535714 8.83928571 10.70535714 8.83928571 13.0625 10.125 C14 12 14 12 14 13.9375 C11.36327959 19.37573585 5.68537697 21.14915561 0.40234375 23.265625 C-2 24 -2 24 -6 24 C-6 24.66 -6 25.32 -6 26 C-6.99 26 -7.98 26 -9 26 C-9.31453125 25.20335938 -9.6290625 24.40671875 -9.953125 23.5859375 C-13.77088372 14.04577364 -13.77088372 14.04577364 -20 6 C-20.625 3.875 -20.625 3.875 -21 2 C-17.1496895 -0.56687367 -15.41430237 0.16711276 -11 1 C-10.67 1.99 -10.34 2.98 -10 4 C-9.34 4 -8.68 4 -8 4 C-7.896875 3.360625 -7.79375 2.72125 -7.6875 2.0625 C-7.460625 1.381875 -7.23375 0.70125 -7 0 C-3.87438528 -1.04187157 -2.95319818 -1.23843794 0 0 Z " fill="#583F29" transform="translate(65,2)"/>
<path d="M0 0 C4.21073233 1.50383297 5.83237117 4.20664956 8 8 C8 8.99 8 9.98 8 11 C6.58461283 11.33872513 5.16762037 11.67074624 3.75 12 C2.96109375 12.185625 2.1721875 12.37125 1.359375 12.5625 C-1 13 -1 13 -5 13 C-5 13.66 -5 14.32 -5 15 C-5.598125 15.268125 -6.19625 15.53625 -6.8125 15.8125 C-9.01728726 16.86569131 -9.01728726 16.86569131 -10.4375 18.5 C-12 20 -12 20 -14.375 20.8125 C-18.01255544 22.45806079 -19.69043313 24.79226823 -22 28 C-22.36784131 29.3242287 -22.71202981 30.65613912 -23 32 C-23.99 32.66 -24.98 33.32 -26 34 C-28.27142685 38.72300134 -30.02909559 43.76399141 -30.5 49 C-30.665 49.99 -30.83 50.98 -31 52 C-31.63679688 52.41121094 -32.27359375 52.82242188 -32.9296875 53.24609375 C-35.9374937 55.79421636 -35.96861486 58.23885885 -36.625 62.0625 C-37.80851064 68.80851064 -37.80851064 68.80851064 -40 71 C-43.35583638 80.46517953 -40.84581557 91.75109939 -38 101 C-37.34 101 -36.68 101 -36 101 C-36.33 107.27 -36.66 113.54 -37 120 C-37.99 119.67 -38.98 119.34 -40 119 C-39.88140625 118.03320312 -39.7628125 117.06640625 -39.640625 116.0703125 C-38.91048863 108.69593517 -38.62185313 102.87394069 -41.9921875 96.05078125 C-45.98906359 87.91760317 -45.56383645 74.62584661 -43.0234375 66.109375 C-41.81652508 62.98473057 -40.49070535 59.99849615 -39 57 C-38.30615251 55.48205206 -37.61811507 53.96142697 -36.9375 52.4375 C-36.61394531 51.73496094 -36.29039063 51.03242187 -35.95703125 50.30859375 C-34.82792195 47.5849056 -33.98873111 44.81867805 -33.125 42 C-29.24234218 30.20269355 -20.12660554 18.78583488 -9 13 C-5.85164295 11.973808 -2.70432391 11.00463537 0.48828125 10.125 C3.17713678 9.26944265 3.17713678 9.26944265 3.85546875 6.875 C3.90316406 6.25625 3.95085938 5.6375 4 5 C3.01 4.67 2.02 4.34 1 4 C0.3125 1.9375 0.3125 1.9375 0 0 Z " fill="#706256" transform="translate(45,9)"/>
<path d="M0 0 C0.33 0 0.66 0 1 0 C1.103125 0.99 1.20625 1.98 1.3125 3 C1.71037399 5.97199816 2.5185532 8.43064759 3.6875 11.1875 C5.11007568 14.7405359 5.11007568 14.7405359 4.125 17.0625 C3.75375 17.701875 3.3825 18.34125 3 19 C3.12634363 24.06467813 3.12634363 24.06467813 6.0625 27.9375 C6.701875 28.288125 7.34125 28.63875 8 29 C6.74915329 31.60593064 5.37594686 34.1194871 3.9375 36.625 C2.92096756 38.39573392 1.91310863 40.17378275 1 42 C-2 41 -2 41 -2.94921875 39.3125 C-7.01323218 26.58289178 -6.09422462 13.27524004 -1 1 C-0.67 0.67 -0.34 0.34 0 0 Z " fill="#F3D081" transform="translate(11,68)"/>
<path d="M0 0 C0.66 0.99 1.32 1.98 2 3 C1.24976563 3.15855469 0.49953125 3.31710938 -0.2734375 3.48046875 C-12.56695094 6.28289436 -22.54076332 10.55967306 -29.6875 21.25 C-32.62948178 26.04699242 -34.49258706 30.5910477 -36 36 C-36.66 36 -37.32 36 -38 36 C-38 42.6 -38 49.2 -38 56 C-38.99 55.67 -39.98 55.34 -41 55 C-41.33 53.02 -41.66 51.04 -42 49 C-42.99 51.97 -43.98 54.94 -45 58 C-46.12242924 54.63271227 -45.89414285 52.96193826 -45.3125 49.5 C-45.16425781 48.5409375 -45.01601563 47.581875 -44.86328125 46.59375 C-43.82366387 43.4701937 -42.59374264 42.89286938 -40 41 C-39.23498976 38.81732027 -39.23498976 38.81732027 -39 36.375 C-38.15224603 31.26596945 -36.81765571 26.40196034 -34 22 C-33.01 21.67 -32.02 21.34 -31 21 C-30.95875 20.13375 -30.9175 19.2675 -30.875 18.375 C-29.73476841 13.97696388 -27.71456363 11.58217933 -24 9 C-22.00889599 8.61709538 -20.00899487 8.27395385 -18 8 C-16.56362302 6.04836882 -16.56362302 6.04836882 -16 4 C-15.01 4 -14.02 4 -13 4 C-13 3.34 -13 2.68 -13 2 C-8.55493675 0.57757976 -4.72271651 -0.54915308 0 0 Z " fill="#8D673B" transform="translate(53,20)"/>
<path d="M0 0 C11.95864135 0.39862138 20.61990113 6.0825501 29.234375 14.046875 C31 16 31 16 31 18 C31.99 18.33 32.98 18.66 34 19 C38.98015925 25.76990398 42.63090312 33.18717085 43.875 41.5 C44.62037383 46.10377956 45.86936538 48.62320926 48.7578125 52.1953125 C52.78081962 58.0400587 53.38222398 65.11996828 53 72 C52.01 71.505 52.01 71.505 51 71 C50.36765486 68.73167936 49.84226125 66.43298739 49.375 64.125 C49.11460938 62.86945313 48.85421875 61.61390625 48.5859375 60.3203125 C48 57 48 57 48 54 C47.34 54 46.68 54 46 54 C46 52.68 46 51.36 46 50 C45.37222656 49.75378906 44.74445313 49.50757813 44.09765625 49.25390625 C41.5051463 47.7041936 41.23992985 46.79899513 40.4375 43.9375 C40.19773438 43.13054688 39.95796875 42.32359375 39.7109375 41.4921875 C39.47632813 40.66976562 39.24171875 39.84734375 39 39 C38.04383421 35.98440019 37.03188287 32.99045666 36 30 C35.57074219 28.70642578 35.57074219 28.70642578 35.1328125 27.38671875 C33.02289061 21.50160604 31.09595897 18.60963761 26 15 C24.66666667 13.66666667 23.33333333 12.33333333 22 11 C15.58984161 5.2828317 8.09614379 3.29689391 0 1 C0 0.67 0 0.34 0 0 Z " fill="#665D55" transform="translate(76,18)"/>
<path d="M0 0 C2 2 2 2 2.17944336 3.99609375 C2.14987549 4.80175781 2.12030762 5.60742188 2.08984375 6.4375 C2.06986328 7.33339844 2.04988281 8.22929688 2.02929688 9.15234375 C1.96910102 11.01969593 1.90416253 12.88690257 1.83398438 14.75390625 C1.70567583 20.97465854 1.93195339 27.42460144 5 33 C7.03537216 33.83817157 7.03537216 33.83817157 9 34 C9.20010667 38.30229338 8.68273933 41.07360824 7 45 C6.26595626 47.65346893 5.63582357 50.32045783 5 53 C4.34 53 3.68 53 3 53 C2.89344422 46.55929529 3.03794912 40.37358711 4 34 C3.34 34 2.68 34 2 34 C-2.91653513 23.09811776 -3.68193167 11.50603647 0 0 Z " fill="#876742" transform="translate(5,76)"/>
<path d="M0 0 C1.7138629 0.79919028 3.41963453 1.61594503 5.1171875 2.44921875 C6.8279611 3.25815921 8.53889562 4.06675945 10.25 4.875 C11.0548584 5.26381348 11.8597168 5.65262695 12.68896484 6.05322266 C14.78431219 7.03892878 16.89403863 7.93407628 19.0390625 8.8046875 C21.9921875 10.13671875 21.9921875 10.13671875 23.1171875 12.13671875 C22.9921875 14.13671875 22.9921875 14.13671875 21.5546875 15.88671875 C21.0390625 16.29921875 20.5234375 16.71171875 19.9921875 17.13671875 C19.9921875 15.81671875 19.9921875 14.49671875 19.9921875 13.13671875 C16.58807832 11.74440743 13.16089426 10.50813133 9.6796875 9.32421875 C6.03639897 8.03520479 3.11088579 6.65661668 -0.0078125 4.38671875 C-4.71170741 1.21839284 -9.52720142 1.54100015 -15.0078125 2.13671875 C-16.34870802 2.43819526 -17.68609142 2.75996648 -19.0078125 3.13671875 C-18.0078125 0.13671875 -18.0078125 0.13671875 -16.20263672 -1.02612305 C-10.63955076 -3.14801646 -5.37939541 -2.26418523 0 0 Z " fill="#A18252" transform="translate(52.0078125,71.86328125)"/>
<path d="M0 0 C3.01217112 0.64449607 5.51655836 1.65022182 8.25 3.0625 C8.95640625 3.42472656 9.6628125 3.78695312 10.390625 4.16015625 C10.92171875 4.43730469 11.4528125 4.71445313 12 5 C12.49180012 8.44260084 12.20765475 9.71620517 10.125 12.5625 C6.12641905 15.68139314 1.93360733 17.76459264 -3 19 C-5.30859375 18.6015625 -5.30859375 18.6015625 -7 18 C-6.505 16.515 -6.505 16.515 -6 15 C-4.95199219 14.85304688 -4.95199219 14.85304688 -3.8828125 14.703125 C-2.97273438 14.55359375 -2.06265625 14.4040625 -1.125 14.25 C-0.22007813 14.11078125 0.68484375 13.9715625 1.6171875 13.828125 C4.1223139 13.2185322 4.1223139 13.2185322 5.3203125 11.109375 C6.15334688 8.89345862 6.15334688 8.89345862 6 6 C4.34467377 4.98133771 2.67739862 3.98189187 1 3 C0.67 2.01 0.34 1.02 0 0 Z " fill="#EED8AC" transform="translate(60,80)"/>
<path d="M0 0 C3.29714793 0.32971479 4.6226839 0.6226839 7 3 C7.265625 5.09375 7.265625 5.09375 7.25 7.5 C7.25515625 8.2940625 7.2603125 9.088125 7.265625 9.90625 C7 12 7 12 5 14 C2.5 14.25 2.5 14.25 0 14 C-2 12 -2 12 -2.265625 9.6875 C-2.26046875 8.800625 -2.2553125 7.91375 -2.25 7 C-2.25515625 6.113125 -2.2603125 5.22625 -2.265625 4.3125 C-2 2 -2 2 0 0 Z " fill="#614524" transform="translate(75,68)"/>
<path d="M0 0 C6.48472993 0.73690113 12.69239743 2.35318751 19 4 C18.505 4.474375 18.01 4.94875 17.5 5.4375 C15.88457803 6.75923698 15.88457803 6.75923698 16 8 C11.15078531 8.30307592 7.15204025 8.28510806 2.625 6.375 C0.830625 5.694375 0.830625 5.694375 -1 5 C-1.99 5.66 -2.98 6.32 -4 7 C-2.79618552 4.50638429 -1.54571278 2.31856917 0 0 Z " fill="#F8D47C" transform="translate(21,100)"/>
<path d="M0 0 C0.33 0 0.66 0 1 0 C1.03758423 0.96824707 1.03758423 0.96824707 1.07592773 1.95605469 C1.19214433 4.88755894 1.31475442 7.81876217 1.4375 10.75 C1.47681641 11.76578125 1.51613281 12.7815625 1.55664062 13.828125 C1.59853516 14.8078125 1.64042969 15.7875 1.68359375 16.796875 C1.72025146 17.69760742 1.75690918 18.59833984 1.79467773 19.52636719 C1.98306407 21.79596339 2.37366501 23.81562887 3 26 C4.65 25.67 6.3 25.34 8 25 C7.67 25.66 7.34 26.32 7 27 C6.34 27 5.68 27 5 27 C4.67 27.99 4.34 28.98 4 30 C3.34 30.33 2.68 30.66 2 31 C1.66501699 33.33165034 1.66501699 33.33165034 2 36 C3.89584109 38.31377147 3.89584109 38.31377147 6 40 C4.02 40.495 4.02 40.495 2 41 C-1.89110708 36.74410163 -1.89110708 36.74410163 -2.375 33.4375 C-2 31 -2 31 -0.9375 29.125 C0.21810419 26.50563051 -0.32847384 24.89130398 -0.77124023 22.13964844 C-1.21921673 17.94961004 -0.82525014 13.75744193 -0.5625 9.5625 C-0.51029297 8.64017578 -0.45808594 7.71785156 -0.40429688 6.76757812 C-0.27569984 4.51128464 -0.1407929 2.25555971 0 0 Z " fill="#A8824D" transform="translate(15,56)"/>
<path d="M0 0 C3.875 0.875 3.875 0.875 5 2 C5.07205511 3.68608966 5.08386068 5.37500659 5.0625 7.0625 C5.05347656 7.98160156 5.04445313 8.90070313 5.03515625 9.84765625 C5.02355469 10.55792969 5.01195312 11.26820312 5 12 C2.625 12.625 2.625 12.625 0 13 C-2 11 -2 11 -2.1953125 8.8359375 C-2.17210938 8.02382812 -2.14890625 7.21171875 -2.125 6.375 C-2.10695313 5.55773437 -2.08890625 4.74046875 -2.0703125 3.8984375 C-2.04710938 3.27195312 -2.02390625 2.64546875 -2 2 C-1.34 2 -0.68 2 0 2 C0 1.34 0 0.68 0 0 Z " fill="#6A4F27" transform="translate(22,65)"/>
<path d="M0 0 C10.23922238 0.44818145 19.57372222 5.05522651 27 12 C27.495 13.485 27.495 13.485 28 15 C24.87143779 14.65238198 23.93874303 13.93708744 21.6875 11.625 C18.537462 8.5482187 16.08197549 7.52073597 12 6 C12 5.34 12 4.68 12 4 C6.06 4 0.12 4 -6 4 C-4.68 3.34 -3.36 2.68 -2 2 C-1.34 1.34 -0.68 0.68 0 0 Z " fill="#816242" transform="translate(75,19)"/>
<path d="M0 0 C0.33 0.99 0.66 1.98 1 3 C1.66 3 2.32 3 3 3 C3.33 1.68 3.66 0.36 4 -1 C4.66 -0.34 5.32 0.32 6 1 C5.67 1.66 5.34 2.32 5 3 C4.77377919 4.70363822 4.59111527 6.41328701 4.4375 8.125 C4.35371094 9.03507813 4.26992188 9.94515625 4.18359375 10.8828125 C4.12300781 11.58148438 4.06242187 12.28015625 4 13 C3.34 13 2.68 13 2 13 C2 11.68 2 10.36 2 9 C1.34 9 0.68 9 0 9 C-0.66 6.69 -1.32 4.38 -2 2 C-4.41645782 1.83312552 -4.41645782 1.83312552 -7 2 C-7.66 2.66 -8.32 3.32 -9 4 C-9 2.68 -9 1.36 -9 0 C-5.93109813 -1.53445094 -3.29905734 -0.54984289 0 0 Z " fill="#615851" transform="translate(54,3)"/>
<path d="M0 0 C4.21073233 1.50383297 5.83237117 4.20664956 8 8 C8 8.99 8 9.98 8 11 C6.58461283 11.33872513 5.16762037 11.67074624 3.75 12 C2.96109375 12.185625 2.1721875 12.37125 1.359375 12.5625 C-1 13 -1 13 -5 13 C-5 13.66 -5 14.32 -5 15 C-6.36125 15.433125 -6.36125 15.433125 -7.75 15.875 C-10.32202908 16.76531776 -12.61346766 17.71494413 -15 19 C-15 18.34 -15 17.68 -15 17 C-10.33664546 13.11387121 -5.31658762 11.72437347 0.48828125 10.125 C3.17713678 9.26944265 3.17713678 9.26944265 3.85546875 6.875 C3.90316406 6.25625 3.95085938 5.6375 4 5 C3.01 4.67 2.02 4.34 1 4 C0.3125 1.9375 0.3125 1.9375 0 0 Z " fill="#625851" transform="translate(45,9)"/>
<path d="M0 0 C5.0614803 1.55483382 9.49375316 3.16750198 14 6 C16.19130534 6.69579454 16.19130534 6.69579454 18 7 C18.6875 8.8125 18.6875 8.8125 19 11 C17.5625 12.75 17.5625 12.75 16 14 C16 12.68 16 11.36 16 10 C12.42152963 8.54767747 8.81939893 7.18773455 5.1875 5.875 C3.72376953 5.34519531 3.72376953 5.34519531 2.23046875 4.8046875 C1.49441406 4.53914063 0.75835937 4.27359375 0 4 C0 2.66666667 0 1.33333333 0 0 Z " fill="#A28452" transform="translate(56,75)"/>
<path d="M0 0 C1.258125 -0.04125 2.51625 -0.0825 3.8125 -0.125 C4.52019531 -0.14820312 5.22789063 -0.17140625 5.95703125 -0.1953125 C8 0 8 0 11 2 C13.53503933 2.09135277 15.97274418 2.09627641 18.5 2 C25.59459459 1.72972973 25.59459459 1.72972973 29 4 C18.71618776 5.09654482 9.54924131 5.45631261 0 1 C0 0.67 0 0.34 0 0 Z " fill="#EED6AA" transform="translate(22,96)"/>
<path d="M0 0 C-0.33 0.66 -0.66 1.32 -1 2 C-3.5625 2.625 -3.5625 2.625 -6 3 C-6.02688151 4.64574566 -6.04634123 6.29161413 -6.0625 7.9375 C-6.07410156 8.85402344 -6.08570312 9.77054688 -6.09765625 10.71484375 C-6.25949049 12.96593327 -6.25949049 12.96593327 -5 14 C-3.00041636 14.04080783 -0.99954746 14.04254356 1 14 C1 14.66 1 15.32 1 16 C-0.65 16.33 -2.3 16.66 -4 17 C-4 19.31 -4 21.62 -4 24 C-4.33 24 -4.66 24 -5 24 C-5.33 21.03 -5.66 18.06 -6 15 C-7.32 14.67 -8.64 14.34 -10 14 C-9.67 13.34 -9.34 12.68 -9 12 C-8.92934383 9.95944995 -8.91578024 7.91665743 -8.9375 5.875 C-8.94652344 4.77929688 -8.95554687 3.68359375 -8.96484375 2.5546875 C-8.97644531 1.71164063 -8.98804687 0.86859375 -9 0 C-5.52176885 -1.15941038 -3.54104422 -0.70820884 0 0 Z " fill="#DDBF84" transform="translate(80,67)"/>
<path d="M0 0 C0.33 0 0.66 0 1 0 C0.88590407 1.45922693 0.75834456 2.91740598 0.625 4.375 C0.55539063 5.18710938 0.48578125 5.99921875 0.4140625 6.8359375 C0 9 0 9 -2 11 C-2.45662153 13.19291082 -2.820412 15.40585889 -3.125 17.625 C-3.29257812 18.81351563 -3.46015625 20.00203125 -3.6328125 21.2265625 C-3.75398437 22.14179687 -3.87515625 23.05703125 -4 24 C-4.33 24 -4.66 24 -5 24 C-6.40656917 15.12582722 -6.65862917 9.23643568 -1.4453125 1.6953125 C-0.96835938 1.13585937 -0.49140625 0.57640625 0 0 Z " fill="#7B6655" transform="translate(7,69)"/>
<path d="M0 0 C0.33 0 0.66 0 1 0 C1.144375 1.093125 1.28875 2.18625 1.4375 3.3125 C1.88288104 6.93122987 1.88288104 6.93122987 3 10 C3.99 10.33 4.98 10.66 6 11 C3.35261084 12.4606285 2.10551666 13 -1 13 C-2.85274701 9.87348943 -3.45353362 7.62826895 -3 4 C-1.5625 1.6875 -1.5625 1.6875 0 0 Z " fill="#E6C78A" transform="translate(19,69)"/>
<path d="M0 0 C0.66 0 1.32 0 2 0 C1.19841344 9.81943537 -2.88365138 16.84953766 -8 25 C-8.33 24.34 -8.66 23.68 -9 23 C-8.16054272 20.96638518 -7.22645148 18.97150204 -6.25 17 C-3.58475038 11.42776882 -1.53772785 5.97555649 0 0 Z " fill="#655C57" transform="translate(12,50)"/>
<path d="M0 0 C0.33 0 0.66 0 1 0 C1 6.27 1 12.54 1 19 C1.66 19.33 2.32 19.66 3 20 C2.55005243 21.79379098 2.08975857 23.58498928 1.625 25.375 C1.36976562 26.37273437 1.11453125 27.37046875 0.8515625 28.3984375 C0 31 0 31 -2 33 C-2.1251262 26.49343766 -2.1251262 26.49343766 -1.51586914 24.09082031 C-0.90882568 21.63047002 -0.78662776 19.32856786 -0.68359375 16.796875 C-0.64169922 15.8171875 -0.59980469 14.8375 -0.55664062 13.828125 C-0.51732422 12.81234375 -0.47800781 11.7965625 -0.4375 10.75 C-0.39431641 9.71875 -0.35113281 8.6875 -0.30664062 7.625 C-0.20074318 5.0834613 -0.09866557 2.54182804 0 0 Z " fill="#AC8343" transform="translate(126,95)"/>
<path d="M0 0 C0.66 0.33 1.32 0.66 2 1 C1.67 1.99 1.34 2.98 1 4 C-0.66666667 4.66666667 -2.33333333 5.33333333 -4 6 C-4.88639389 8.65918166 -5.17989025 10.48064641 -5.31640625 13.23046875 C-5.35830078 14.03291016 -5.40019531 14.83535156 -5.44335938 15.66210938 C-5.48267578 16.49548828 -5.52199219 17.32886719 -5.5625 18.1875 C-5.60568359 19.03248047 -5.64886719 19.87746094 -5.69335938 20.74804688 C-5.79931518 22.83184433 -5.9001502 24.91590103 -6 27 C-6.33 27 -6.66 27 -7 27 C-7 18.42 -7 9.84 -7 1 C-4.69 1.66 -2.38 2.32 0 3 C0 2.01 0 1.02 0 0 Z " fill="#D8B272" transform="translate(110,61)"/>
<path d="M0 0 C0.66 0 1.32 0 2 0 C2.33 0.66 2.66 1.32 3 2 C4.258125 1.608125 5.51625 1.21625 6.8125 0.8125 C9.01953125 0.25390625 9.01953125 0.25390625 11 0 C13 1.25 13 1.25 14 3 C14 3.66 14 4.32 14 5 C13.39671875 4.91621094 12.7934375 4.83242187 12.171875 4.74609375 C10.97304687 4.59333984 10.97304687 4.59333984 9.75 4.4375 C8.96109375 4.33308594 8.1721875 4.22867187 7.359375 4.12109375 C4.9550236 3.99769161 3.25464874 4.16933994 1 5 C-0.28436734 6.9837767 -0.28436734 6.9837767 -1 9 C-2.25541557 5.23375329 -1.37061958 3.62811066 0 0 Z " fill="#574F45" transform="translate(65,11)"/>
<path d="M0 0 C0.66 0.99 1.32 1.98 2 3 C-6.91 3.99 -6.91 3.99 -16 5 C-15.01 4.67 -14.02 4.34 -13 4 C-13 3.34 -13 2.68 -13 2 C-8.55493675 0.57757976 -4.72271651 -0.54915308 0 0 Z " fill="#866642" transform="translate(53,20)"/>
<path d="M0 0 C0 4.29 0 8.58 0 13 C-0.33 13 -0.66 13 -1 13 C-1.33 11.02 -1.66 9.04 -2 7 C-2.99 9.97 -3.98 12.94 -5 16 C-6.13249084 12.60252747 -5.86316721 10.92604978 -5.25 7.4375 C-5.09015625 6.46683594 -4.9303125 5.49617188 -4.765625 4.49609375 C-3.99589796 1.98662652 -3.11882804 0 0 0 Z " fill="#9C7848" transform="translate(13,62)"/>
<path d="M0 0 C0.33 1.32 0.66 2.64 1 4 C-1.75078884 4.91692961 -3.35948913 5.10886083 -6.1875 5.0625 C-8.0746875 5.0315625 -8.0746875 5.0315625 -10 5 C-10 4.01 -10 3.02 -10 2 C-6.5980513 -0.09350689 -3.94727588 -0.17942163 0 0 Z " fill="#EECA7B" transform="translate(55,23)"/>
<path d="M0 0 C0.66 0.33 1.32 0.66 2 1 C1.01 2.1446875 1.01 2.1446875 0 3.3125 C-2.29850538 5.84277939 -2.29850538 5.84277939 -2 9 C-2.66 9 -3.32 9 -4 9 C-4.33 9.99 -4.66 10.98 -5 12 C-5.99 12 -6.98 12 -8 12 C-8 11.01 -8 10.02 -8 9 C-8.66 8.67 -9.32 8.34 -10 8 C-9.44570313 7.59007813 -8.89140625 7.18015625 -8.3203125 6.7578125 C-7.59585937 6.21898438 -6.87140625 5.68015625 -6.125 5.125 C-5.04605469 4.32449219 -5.04605469 4.32449219 -3.9453125 3.5078125 C-1.91747368 2.00126838 -1.91747368 2.00126838 0 0 Z " fill="#C5B48F" transform="translate(35,74)"/>
<path d="M0 0 C-0.41588046 6.19518473 -1.60251894 11.26689311 -4 17 C-4.33 17 -4.66 17 -5 17 C-5.20612487 11.22850374 -4.74451341 6.52429247 -3 1 C-1 0 -1 0 0 0 Z " fill="#957137" transform="translate(103,85)"/>
<path d="M0 0 C-1.39367924 3.37227049 -2.84275299 4.90493713 -5.9375 6.8125 C-6.62714844 7.25207031 -7.31679688 7.69164062 -8.02734375 8.14453125 C-10 9 -10 9 -13 8 C-9.4918251 4.18228025 -5.53544278 0 0 0 Z " fill="#F5CF7F" transform="translate(43,26)"/>
<path d="M0 0 C0.33 0 0.66 0 1 0 C1 4.62 1 9.24 1 14 C-0.98 14 -2.96 14 -5 14 C-5 12.35 -5 10.7 -5 9 C-4.34 9.66 -3.68 10.32 -3 11 C-2.01 7.37 -1.02 3.74 0 0 Z " fill="#EFC87A" transform="translate(128,115)"/>
<path d="M0 0 C2.125 0.375 2.125 0.375 4 1 C3.01 1.495 3.01 1.495 2 2 C1.66501699 4.33165034 1.66501699 4.33165034 2 7 C3.89584109 9.31377147 3.89584109 9.31377147 6 11 C4.68 11.33 3.36 11.66 2 12 C-1.89708405 7.73756432 -1.89708405 7.73756432 -2.375 4.3125 C-2 2 -2 2 0 0 Z " fill="#9C7C48" transform="translate(15,85)"/>
<path d="M0 0 C0.268125 0.639375 0.53625 1.27875 0.8125 1.9375 C1.88667752 4.33131686 1.88667752 4.33131686 5 5 C4.34 5 3.68 5 3 5 C3 5.99 3 6.98 3 8 C-1.75 7.125 -1.75 7.125 -4 6 C-4.33 6.66 -4.66 7.32 -5 8 C-5.66 6.02 -6.32 4.04 -7 2 C-2.125 2.875 -2.125 2.875 -1 4 C-0.67 2.68 -0.34 1.36 0 0 Z " fill="#99713C" transform="translate(107,56)"/>
<path d="M0 0 C0.99 0 1.98 0 3 0 C3 3.3 3 6.6 3 10 C1.68 10 0.36 10 -1 10 C-1.125 2.25 -1.125 2.25 0 0 Z " fill="#583E23" transform="translate(23,66)"/>
<path d="M0 0 C4.19141135 2.23541939 6.21299034 3.72162585 7.875 8.25 C8.431875 10.10625 8.431875 10.10625 9 12 C8.01 12.495 8.01 12.495 7 13 C3.04102568 8.72847508 1.25124755 5.68748885 0 0 Z " fill="#80644A" transform="translate(103,34)"/>
<path d="M0 0 C-2 2 -2 2 -4.33837891 2.22705078 C-5.29147949 2.21657715 -6.24458008 2.20610352 -7.2265625 2.1953125 C-8.7734375 2.18564453 -8.7734375 2.18564453 -10.3515625 2.17578125 C-11.43179688 2.15902344 -12.51203125 2.14226562 -13.625 2.125 C-14.71296875 2.11597656 -15.8009375 2.10695313 -16.921875 2.09765625 C-19.61480152 2.07403409 -22.30729255 2.04109556 -25 2 C-21.94629456 -1.05370544 -18.29621601 -0.50970348 -14.1875 -0.6875 C-13.37990234 -0.73455078 -12.57230469 -0.78160156 -11.74023438 -0.83007812 C-7.65296387 -1.03427428 -3.99300029 -1.07721915 0 0 Z " fill="#F5E1B6" transform="translate(55,97)"/>
<path d="M0 0 C0.99 0.33 1.98 0.66 3 1 C4.99186369 6.13691161 5.1921227 10.52450293 5 16 C4.34 15.67 3.68 15.34 3 15 C2.36198164 12.4684134 1.83312632 10.00160498 1.375 7.4375 C1.2409375 6.72658203 1.106875 6.01566406 0.96875 5.28320312 C0.63808153 3.52357447 0.31804233 1.76195452 0 0 Z " fill="#726355" transform="translate(124,74)"/>
<path d="M0 0 C2.5 1.25 2.5 1.25 5 3 C5 4.32 5 5.64 5 7 C5.66 7 6.32 7 7 7 C7.33 8.65 7.66 10.3 8 12 C4.74905801 10.95505436 3.43126714 9.40864509 1.75 6.5625 C0 3 0 3 0 0 Z " fill="#846743" transform="translate(117,65)"/>
<path d="M0 0 C3.42931954 3.7559214 4.56429083 8.23466745 6 13 C4.02 12.34 2.04 11.68 0 11 C0.185625 10.29875 0.37125 9.5975 0.5625 8.875 C1.05156976 5.66111302 0.66231558 3.16439664 0 0 Z " fill="#E6C174" transform="translate(107,45)"/>
<path d="M0 0 C1.670625 0.061875 1.670625 0.061875 3.375 0.125 C3.375 1.115 3.375 2.105 3.375 3.125 C5.685 3.125 7.995 3.125 10.375 3.125 C10.375 3.455 10.375 3.785 10.375 4.125 C4.58601581 4.33174944 -0.05432723 3.71662079 -5.625 2.125 C-3.625 0.125 -3.625 0.125 0 0 Z " fill="#A17B44" transform="translate(33.625,99.875)"/>
<path d="M0 0 C4.875 1.75 4.875 1.75 6 4 C6.99 4.33 7.98 4.66 9 5 C9.99 6.485 9.99 6.485 11 8 C10.67 8.99 10.34 9.98 10 11 C8.51450044 9.73657512 7.03678811 8.4639897 5.5625 7.1875 C4.73878906 6.47980469 3.91507812 5.77210937 3.06640625 5.04296875 C1 3 1 3 0 0 Z " fill="#8E6636" transform="translate(94,29)"/>
<path d="M0 0 C1.125 3.75 1.125 3.75 0 6 C-0.66 4.68 -1.32 3.36 -2 2 C-4.41645782 1.83312552 -4.41645782 1.83312552 -7 2 C-7.66 2.66 -8.32 3.32 -9 4 C-9 2.68 -9 1.36 -9 0 C-5.93109813 -1.53445094 -3.29905734 -0.54984289 0 0 Z " fill="#58504B" transform="translate(54,3)"/>
<path d="M0 0 C6.625 0.75 6.625 0.75 10 3 C8.989375 2.9175 7.97875 2.835 6.9375 2.75 C2.09724632 3.05731769 0.00631733 4.3836295 -4 7 C-2.79618552 4.50638429 -1.54571278 2.31856917 0 0 Z " fill="#EBC67C" transform="translate(21,100)"/>
<path d="M0 0 C0.66 0.66 1.32 1.32 2 2 C1.98251781 4.91952568 1.86055367 7.72297885 1.625 10.625 C1.56828125 11.42679688 1.5115625 12.22859375 1.453125 13.0546875 C1.31152018 15.03715498 1.15697741 17.01869051 1 19 C0.67 19 0.34 19 0 19 C-0.19534474 16.58373582 -0.38153404 14.16734771 -0.5625 11.75 C-0.61857422 11.06808594 -0.67464844 10.38617188 -0.73242188 9.68359375 C-0.98186254 6.2579419 -1.13879745 3.27298823 0 0 Z " fill="#946F42" transform="translate(5,76)"/>
<path d="M0 0 C0 0.66 0 1.32 0 2 C-0.66 2 -1.32 2 -2 2 C-2.66 4.31 -3.32 6.62 -4 9 C-4.66 8.67 -5.32 8.34 -6 8 C-6 5.69 -6 3.38 -6 1 C-4 0 -4 0 0 0 Z " fill="#F3D694" transform="translate(22,65)"/>
<path d="M0 0 C2.475 0.99 2.475 0.99 5 2 C5.33 5.3 5.66 8.6 6 12 C4.42477998 9.63716997 3.1344033 7.40313552 1.875 4.875 C1.52179688 4.17117187 1.16859375 3.46734375 0.8046875 2.7421875 C0 1 0 1 0 0 Z " fill="#99733F" transform="translate(107,44)"/>
<path d="M0 0 C7.50769231 -0.36923077 7.50769231 -0.36923077 10 1.5 C10.495 2.2425 10.495 2.2425 11 3 C8.83032311 3.95465783 7.43671207 4.14401212 5.17578125 3.3984375 C3.4315257 2.64129615 1.71372869 1.82390802 0 1 C0 0.67 0 0.34 0 0 Z " fill="#DDC399" transform="translate(22,96)"/>
<path d="M0 0 C1.22589844 0.01353516 1.22589844 0.01353516 2.4765625 0.02734375 C3.41628906 0.04474609 3.41628906 0.04474609 4.375 0.0625 C1.65560541 1.5201935 -0.87254273 2.48692664 -3.875 3.1875 C-5.1125 3.47625 -6.35 3.765 -7.625 4.0625 C-7.295 3.0725 -6.965 2.0825 -6.625 1.0625 C-4.21954362 -0.14022819 -2.67503047 -0.03821472 0 0 Z " fill="#8E6F3D" transform="translate(40.625,70.9375)"/>
<path d="M0 0 C4.56454251 0.54339792 7.9728176 1.79463821 12 4 C12 4.33 12 4.66 12 5 C10.02 5 8.04 5 6 5 C5.67 4.01 5.34 3.02 5 2 C3.35 1.67 1.7 1.34 0 1 C0 0.67 0 0.34 0 0 Z " fill="#816952" transform="translate(82,21)"/>
<path d="M0 0 C0.33 0 0.66 0 1 0 C0.58846263 4.97093824 0.20399168 9.44508386 -2 14 C-3.11742945 10.64771164 -2.84727505 9.26870332 -2.125 5.875 C-1.94195313 4.98554687 -1.75890625 4.09609375 -1.5703125 3.1796875 C-1 1 -1 1 0 0 Z " fill="#9F7D50" transform="translate(19,42)"/>
<path d="M0 0 C2.70931419 0.15481795 4.46584039 0.48172081 6.4453125 2.40234375 C7.67679642 3.89771708 8.8429837 5.4462924 10 7 C7 7 7 7 4.4375 4.625 C3.633125 3.75875 2.82875 2.8925 2 2 C1.34 1.34 0.68 0.68 0 0 Z " fill="#76695E" transform="translate(96,27)"/>
<path d="M0 0 C4 1 4 1 5.25 2.875 C6 5 6 5 6 8 C5.34 8 4.68 8 4 8 C2.68 5.36 1.36 2.72 0 0 Z " fill="#615C57" transform="translate(61,1)"/>
<path d="M0 0 C0.99 0.99 1.98 1.98 3 3 C2.34 4.65 1.68 6.3 1 8 C0.67 7.34 0.34 6.68 0 6 C-0.66 6 -1.32 6 -2 6 C-1.34 4.02 -0.68 2.04 0 0 Z " fill="#A78148" transform="translate(14,104)"/>
<path d="M0 0 C0.99 0 1.98 0 3 0 C3.66 1.65 4.32 3.3 5 5 C3.68 5 2.36 5 1 5 C0.67 3.35 0.34 1.7 0 0 Z " fill="#8A7855" transform="translate(44,80)"/>
<path d="M0 0 C0.33 0 0.66 0 1 0 C1.33 2.97 1.66 5.94 2 9 C0.02 9.99 0.02 9.99 -2 11 C-2.99 10.34 -3.98 9.68 -5 9 C-3.68 8.67 -2.36 8.34 -1 8 C-0.67 5.36 -0.34 2.72 0 0 Z " fill="#B89C69" transform="translate(27,69)"/>
<path d="M0 0 C0.33 0.99 0.66 1.98 1 3 C-0.65 4.65 -2.3 6.3 -4 8 C-3.50168276 4.31245243 -2.89932357 2.39509338 0 0 Z " fill="#90672E" transform="translate(19,100)"/>
<path d="M0 0 C3 1 3 1 4 3 C1.64561267 4.42944945 0.51967567 5.08661261 -2.25 4.625 C-2.8275 4.41875 -3.405 4.2125 -4 4 C-3.01 4 -2.02 4 -1 4 C-1.33 3.01 -1.66 2.02 -2 1 C-1.34 0.67 -0.68 0.34 0 0 Z " fill="#A7834F" transform="translate(59,97)"/>
<path d="M0 0 C4.67692308 1.47692308 4.67692308 1.47692308 6.3125 4.125 C6.539375 4.74375 6.76625 5.3625 7 6 C6.01 6.495 6.01 6.495 5 7 C0 1.125 0 1.125 0 0 Z " fill="#89653D" transform="translate(105,40)"/>
<path d="M0 0 C0.66 0 1.32 0 2 0 C1.6875 3.375 1.6875 3.375 1 7 C0.01 7.66 -0.98 8.32 -2 9 C-1.34 6.03 -0.68 3.06 0 0 Z " fill="#6D6157" transform="translate(65,11)"/>
<path d="M0 0 C2.62187494 1.04874998 3.79371361 1.64931313 5.25 4.125 C5.4975 4.74375 5.745 5.3625 6 6 C3.5625 5.25 3.5625 5.25 1 4 C0.1875 1.875 0.1875 1.875 0 0 Z " fill="#574D43" transform="translate(45,9)"/>
</svg>
