<svg width="62" height="61" viewBox="0 0 62 61" fill="none" xmlns="http://www.w3.org/2000/svg">
<g clip-path="url(#clip0_43_269)">
<path d="M48.7917 0H13.2083C6.19079 0 0.5 5.69079 0.5 12.7083V48.2917C0.5 55.3092 6.19079 61 13.2083 61H48.7917C55.8118 61 61.5 55.3092 61.5 48.2917V12.7083C61.5 5.69079 55.8118 0 48.7917 0ZM41.1667 17.7917H36.2765C34.7134 17.7917 33.5417 18.4322 33.5417 20.0512V22.875H41.1667L40.5618 30.5H33.5417V50.8333H25.9167V30.5H20.8333V22.875H25.9167V17.9874C25.9167 12.8481 28.621 10.1667 34.7134 10.1667H41.1667V17.7917Z" fill="black"/>
</g>
<defs>
<clipPath id="clip0_43_269">
<rect width="61" height="61" fill="white" transform="translate(0.5)"/>
</clipPath>
</defs>
</svg>
