<svg width="62" height="61" viewBox="0 0 62 61" fill="none" xmlns="http://www.w3.org/2000/svg">
<path d="M31 5.49763C39.1435 5.49763 40.1093 5.52813 43.3271 5.67554C51.5926 6.05171 55.4534 9.9735 55.8295 18.178C55.977 21.3932 56.0049 22.359 56.0049 30.5025C56.0049 38.6486 55.9744 39.6119 55.8295 42.8271C55.4508 51.024 51.6002 54.9534 43.3271 55.3295C40.1093 55.477 39.1486 55.5075 31 55.5075C22.8565 55.5075 21.8907 55.477 18.6755 55.3295C10.3896 54.9508 6.54917 51.0113 6.173 42.8245C6.02558 39.6093 5.99508 38.646 5.99508 30.5C5.99508 22.3565 6.02813 21.3932 6.173 18.1755C6.55171 9.9735 10.4023 6.04917 18.6755 5.673C21.8932 5.52813 22.8565 5.49763 31 5.49763ZM31 0C22.7167 0 21.6797 0.0355833 18.4264 0.183C7.34979 0.691333 1.19388 6.83708 0.685542 17.9238C0.535583 21.1797 0.5 22.2167 0.5 30.5C0.5 38.7833 0.535583 39.8228 0.683 43.0762C1.19133 54.1528 7.33708 60.3087 18.4238 60.817C21.6797 60.9644 22.7167 61 31 61C39.2833 61 40.3228 60.9644 43.5762 60.817C54.6426 60.3087 60.8138 54.1629 61.3145 43.0762C61.4644 39.8228 61.5 38.7833 61.5 30.5C61.5 22.2167 61.4644 21.1797 61.317 17.9264C60.8188 6.85996 54.6655 0.693875 43.5787 0.185542C40.3228 0.0355833 39.2833 0 31 0ZM31 14.8383C22.3507 14.8383 15.3383 21.8507 15.3383 30.5C15.3383 39.1493 22.3507 46.1643 31 46.1643C39.6493 46.1643 46.6618 39.1518 46.6618 30.5C46.6618 21.8507 39.6493 14.8383 31 14.8383ZM31 40.6667C25.3855 40.6667 20.8333 36.1171 20.8333 30.5C20.8333 24.8855 25.3855 20.3333 31 20.3333C36.6145 20.3333 41.1667 24.8855 41.1667 30.5C41.1667 36.1171 36.6145 40.6667 31 40.6667ZM47.2819 10.5606C45.2588 10.5606 43.6194 12.2 43.6194 14.2206C43.6194 16.2412 45.2588 17.8806 47.2819 17.8806C49.3025 17.8806 50.9394 16.2412 50.9394 14.2206C50.9394 12.2 49.3025 10.5606 47.2819 10.5606Z" fill="black"/>
</svg>
