<svg width="661" height="339" viewBox="0 0 661 339" fill="none" xmlns="http://www.w3.org/2000/svg">
<path d="M76.0674 139.059C82.9043 138.51 89.9194 138.871 96.39 141.154C102.86 143.436 108.762 147.792 111.985 153.852C115.029 159.575 115.495 166.318 115.153 172.788C114.143 192.121 106.306 211.032 93.3502 225.419C86.7757 232.716 78.0823 239.177 68.2602 239.098C63.5521 239.063 59.0024 237.518 54.5617 235.954C51.517 234.885 48.4476 233.781 45.7346 232.033C41.3681 229.226 38.175 224.924 35.5462 220.453C29.6004 210.344 26.021 198.656 26.5953 186.947C27.1696 175.234 32.1549 163.565 41.076 155.956C50.5665 147.862 62.0471 140.183 76.0625 139.064L76.0674 139.059Z" fill="#4C4D52"/>
<path d="M461.685 206.676C464.081 206.002 464.542 202.487 463.081 200.473C461.621 198.458 459.071 197.616 456.68 196.913C398.535 179.843 336.77 179.16 277.872 164.897C272.04 163.486 266.163 161.932 260.168 161.936C253.787 161.941 247.549 163.714 241.455 165.62C190.027 181.724 142.54 208.389 91.8848 226.78C86.6916 228.667 80.8102 231.112 79.1269 236.375C76.914 243.301 83.5578 249.89 90.1422 252.974C106.514 260.653 125.539 259.024 143.367 262.054C161.467 265.133 178.319 273.039 195.433 279.693C209.845 285.302 224.573 290.06 239.291 294.818C247.296 297.402 255.396 300.011 263.787 300.605C273.847 301.318 284.1 299.035 292.902 294.119" fill="#212121"/>
<path d="M181.061 132.049C171.011 136.653 160.996 141.322 151.016 146.065C145.075 148.886 139.149 151.733 133.218 154.585C116.802 162.471 100.38 170.358 83.9638 178.244C87.5926 177.655 91.2908 178.452 94.885 179.249C100.45 180.482 106.014 181.719 111.584 182.952C127.98 174.808 144.377 166.664 160.773 158.52C170.907 153.486 181.046 148.451 191.408 143.906C193.235 143.104 195.126 142.277 196.448 140.782C197.77 139.287 198.329 136.926 197.186 135.292C196.097 133.737 193.978 133.396 192.091 133.208C188.012 132.797 183.928 132.47 181.066 132.049H181.061Z" fill="#1A1A1C"/>
<path d="M268.743 161.016C215.246 182.987 161.259 203.22 107.762 225.191C101.94 227.582 96.4246 229.835 90.3749 232.32C86.5084 233.909 84.6667 234.622 80.6369 236.276C80.0428 236.518 75.4287 235.043 74.9881 234.578C74.6267 234.196 74.6416 233.88 74.6416 233.355C74.6416 228.112 74.7356 224.533 74.7356 219.325C135.376 195.685 196.24 171.937 253.049 140.178C254.445 139.396 256.272 138.634 257.529 139.629C257.916 139.936 258.178 140.371 258.43 140.797C262.223 147.193 266.01 153.59 268.743 161.021V161.016Z" fill="#515357"/>
<path d="M309.378 229.384C284.124 222.83 258.871 216.275 233.618 209.715C198.611 200.626 163.605 191.541 128.594 182.452C113.702 178.586 98.8059 174.719 83.9143 170.853C82.1023 170.382 80.2458 169.907 78.3794 170.056C74.5773 170.353 71.4881 173.115 68.7207 175.744C65.9978 178.333 63.0422 181.714 63.968 185.353C64.6413 187.992 67.1513 189.685 69.5375 190.992C86.9243 200.497 107.276 202.413 126.901 205.156C174.13 211.76 220.439 224.186 265.371 240.167C273.872 243.192 282.674 246.39 291.664 245.613C300.655 244.836 309.898 238.796 309.378 229.379V229.384Z" fill="#252526"/>
<path d="M74.7159 183.358C74.9089 188.19 75.097 193.022 75.2901 197.854C75.3099 198.398 75.3 199.047 75.0773 199.453C74.9238 199.725 74.4683 199.893 74.0129 200.096C70.9385 201.487 70.6216 201.507 66.7601 203.25C66.7601 198.195 66.5473 193.596 66.5473 188.418C66.5473 188.165 66.4532 187.665 66.5324 187.427C66.7106 186.908 67.0027 187.026 67.5176 186.828C69.9682 185.873 72.3396 184.724 74.7208 183.358H74.7159Z" fill="#6D6F7B"/>
<path d="M286.342 239.652C215.81 222.424 145.743 201.096 74.6465 183.734C75.0129 188.908 75.2307 194.091 75.3297 199.745C140.852 216.404 201.339 233.231 264.445 249.276C270.763 250.88 276.332 252.707 282.411 254.257C283.862 249.672 284.511 243.84 285.486 239.192C285.694 238.202 285.649 239.499 286.342 239.657V239.652Z" fill="#6D6F7B"/>
<path d="M192.963 170.516C189.73 167.838 186.423 165.248 183.046 162.763C178.734 170.56 175.16 178.155 170.848 185.947C170.001 187.477 168.754 190.096 168.685 191.695C168.61 193.442 169.363 194.878 170.714 195.987C171.863 196.928 172.284 196.675 173.536 196.532C176.442 196.205 179.027 195.185 181.215 193.418C183.403 191.65 185.151 189.408 186.774 187.111C189.596 183.125 192.146 178.853 193.359 174.125C193.7 172.788 193.908 171.308 192.958 170.521L192.963 170.516Z" fill="#2F2F30"/>
<path d="M295.59 195.735C291.932 192.898 288.139 190.23 284.233 187.744C279.604 195.853 275.268 204.126 271.238 212.547C270.411 214.28 269.574 216.097 269.614 218.013C269.654 219.929 270.842 221.973 272.728 222.32C274.381 222.627 275.961 221.607 277.337 220.637C278.337 219.929 279.337 219.226 280.342 218.518C286.248 214.349 292.248 210.097 296.659 204.369C297.526 203.245 298.362 201.898 298.085 200.507C297.897 199.552 297.214 198.784 296.555 198.066C295.734 197.17 294.912 196.269 295.59 195.73V195.735Z" fill="#2F2F30"/>
<path d="M186.695 188.819C183.294 187.323 179.848 185.932 176.363 184.655C175.967 184.511 175.516 184.373 175.15 184.571C174.957 184.68 174.601 184.888 174.442 185.046C173.541 185.947 173.046 186.289 172.472 187.096C171.303 188.729 170.581 190.913 170.699 192.918C170.739 193.621 170.967 194.334 171.452 194.844C172.041 195.462 172.922 195.7 173.764 195.853C176.546 196.368 179.432 196.289 182.18 195.621C182.769 195.477 183.368 195.299 183.848 194.928C184.438 194.472 184.784 193.779 185.091 193.101C185.72 191.715 186.259 190.289 186.7 188.809L186.695 188.819Z" fill="#1D1D1F"/>
<path d="M222.434 157.817C215.295 164.07 208.265 170.452 201.354 176.962C201.24 177.071 201.111 177.184 200.953 177.194C200.819 177.204 200.691 177.135 200.577 177.066C197.879 175.491 195.572 173.264 193.903 170.625C195.468 170.199 196.631 168.932 197.74 167.753C200.616 164.694 203.711 161.857 206.81 159.025C208.582 157.407 210.349 155.783 212.122 154.164C212.216 154.08 212.315 153.991 212.439 153.976C212.543 153.961 212.647 154 212.746 154.04C215.473 155.134 218.196 156.228 222.444 157.822L222.434 157.817Z" fill="#1D1D1F"/>
<path d="M287.001 214.725C283.164 213.503 279.297 212.394 275.327 211.384C273.857 212.25 272.624 213.617 272.188 215.265C271.753 216.914 272.238 218.844 273.584 219.894C274.327 220.473 275.263 220.75 276.178 220.978C278.54 221.567 280.966 221.899 283.397 221.973C284.808 222.018 286.248 221.968 287.521 221.458C287.426 219.265 287.238 217.072 286.996 214.725H287.001Z" fill="#1D1D1F"/>
<path d="M329.403 285C326.883 286.936 324.265 288.758 321.492 290.317C320.086 291.109 318.641 291.827 317.195 292.545C309.185 296.54 301.17 300.535 293.159 304.531C291.169 305.521 289.135 306.531 286.936 306.853C286.689 306.887 286.417 306.912 286.209 306.773C286.006 306.64 285.233 306.031 285.233 305.788C285.233 300.867 285.219 298.417 285.219 293.926C285.219 289.436 285.03 285.302 285.03 280.728C286.58 279.99 287.833 279.391 289.461 278.55C292.412 277.025 295.288 275.51 298.239 273.98C299.739 273.203 301.254 272.46 302.764 271.718C309.576 268.371 316.388 265.029 323.195 261.683C323.864 265.059 325.611 268.104 326.883 271.302C328.661 275.767 329.522 280.594 329.403 285.005V285Z" fill="#3B3F42"/>
<path d="M64.4036 179.764C65.2403 188.472 66.3394 195.131 67.1117 203.136C67.5572 207.765 68.1562 211.478 68.7107 216.721C67.275 215.79 65.5671 215.389 63.8937 215.008C61.2946 214.409 57.8291 213.691 55.2251 213.092C54.5865 209.166 54.334 207.007 53.8043 202.72C53.4379 199.735 52.9428 196.621 52.5715 193.636C51.9824 188.868 51.0022 180.63 50.512 176.665C50.4427 176.115 50.8982 177.071 50.5665 176.452C54.9082 177.209 60.0718 178.536 64.4036 179.764Z" fill="#7B7A80"/>
<path d="M130.119 149.416C127.297 150.857 124.48 152.293 121.658 153.733C103.588 162.956 85.4787 172.189 66.6018 179.63C66.0522 179.848 65.4779 180.066 64.8937 179.992C64.4086 179.932 62.6214 179.293 62.1511 179.16C59.8441 178.506 59.4876 178.194 57.3787 177.907C54.8736 177.566 53.0072 176.798 50.5022 176.457C54.7548 174.363 54.7449 174.472 57.9975 172.986C61.2897 171.486 64.7997 170.541 68.0919 169.041C86.5183 160.629 108.118 150.882 126.837 141.332C128.465 143.431 127.564 147.253 130.119 149.421V149.416Z" fill="#3B3F42"/>
<path d="M180.428 132.95C166.234 138.891 152.273 145.386 138.58 152.411C134.787 154.357 131.015 156.347 127.193 158.243C106.638 168.447 84.6717 176.011 65.4433 188.541C63.4185 184.62 56.9133 186.809 53.4676 184.046C88.1273 168.719 122.074 151.788 155.169 133.322C158.996 131.183 162.863 129.009 167.308 128.307C169.353 128.871 171.205 129.97 173.175 130.762C175.571 131.727 178.14 132.237 180.423 132.955L180.428 132.95Z" fill="#3B3F42"/>
<path d="M388.915 190.457C381.866 195.938 374.232 200.666 366.182 204.532C365.88 207.611 365.702 211.092 367.776 213.384C369.251 215.013 371.588 215.626 373.781 215.508C375.974 215.389 378.073 214.626 380.133 213.869C383.89 212.493 387.643 211.121 391.524 209.597C394.475 207.433 397.619 205.542 400.752 203.651C405.941 200.527 411.124 197.403 416.357 193.804C412.05 191.601 407.619 189.517 402.881 188.566C398.143 187.616 392.732 187.487 388.91 190.457H388.915Z" fill="#363638"/>
<path d="M371.578 189.64C340.097 207.973 308.62 226.305 277.139 244.642C280.055 246.969 283.288 248.905 286.714 250.38C287.981 250.925 289.357 251.42 290.709 251.167C291.59 251.004 292.382 250.534 293.189 250.143C296.001 248.776 305.303 247.742 302.323 248.702C296.892 250.45 309.917 251.247 313.853 251.078C316.512 250.964 319.022 249.87 321.443 248.766C327.2 246.137 332.903 243.345 338.215 239.91C349.206 232.8 358.261 223.137 367.197 213.572C368.093 212.612 369.028 211.577 369.256 210.285C369.385 209.557 369.281 208.79 369.494 208.082C369.816 207.022 370.781 206.309 371.692 205.676C374.271 203.874 376.851 202.072 379.435 200.265C381.237 199.007 383.088 197.695 384.247 195.829C385.405 193.962 385.707 191.378 384.366 189.635C383.088 187.977 380.757 187.551 378.662 187.616C376.143 187.695 373.697 188.393 371.573 189.63L371.578 189.64Z" fill="#444445"/>
<path d="M204.443 180.625C203.419 178.125 202.399 175.62 201.374 173.12C201.047 172.323 200.716 171.516 200.211 170.818C199.745 170.179 199.146 169.645 198.542 169.135C196.626 167.511 194.596 166.021 192.478 164.674C188.21 174.407 181.136 183.289 180.21 193.878C180.061 195.556 180.185 197.492 181.497 198.557C182.507 199.373 183.982 199.413 185.2 198.963C186.418 198.512 187.433 197.646 188.388 196.764C189.804 195.452 191.151 194.071 192.502 192.69C193.032 192.145 193.562 191.606 194.087 191.061C197.488 187.571 200.894 184.081 204.443 180.63V180.625Z" fill="#444445"/>
<path d="M306.977 206.656C306.006 203.275 304.972 199.769 302.635 197.141C302.051 196.482 301.392 195.893 300.734 195.304C298.912 193.67 297.095 192.037 295.273 190.403C293.758 193.071 292.248 195.735 290.734 198.403C289.229 201.052 287.724 203.715 286.585 206.542C285.956 208.111 285.446 209.72 284.931 211.329C283.818 214.844 282.689 218.419 282.639 222.107C282.629 222.85 282.669 223.627 283.035 224.275C283.595 225.26 284.753 225.706 285.823 226.082C286.149 226.196 286.496 226.31 286.832 226.246C287.159 226.181 287.427 225.954 287.674 225.736C294.541 219.79 300.977 213.349 306.967 206.666L306.977 206.656Z" fill="#444445"/>
<path d="M328.849 281.797C325.626 283.985 322.403 286.169 319.18 288.357C318.304 274.535 316.853 260.673 315.997 247.138C324.151 241.573 331.978 236.741 340.864 232.439C341.968 249.841 337.854 267.539 329.185 282.669C328.948 282.441 328.71 282.213 328.854 281.802L328.849 281.797Z" fill="#363638"/>
<path d="M302.788 259.757C298.165 262.707 299.214 261.95 294.551 264.925C294.179 265.163 293.828 265.48 293.387 265.495C292.298 265.539 291.877 264.113 291.808 263.024C291.506 258.242 291.199 253.46 290.897 248.672C295.318 245.944 296.541 245.063 301.387 242.999C301.769 249.029 302.318 252.311 302.788 259.752V259.757Z" fill="#363638"/>
<path d="M564.04 102.553C564.897 103.588 565.377 104.934 565.362 106.276C565.328 109.717 562.377 112.311 559.778 114.573C550.53 122.608 542.772 132.356 537.01 143.168C536.614 143.911 536.228 144.664 535.742 145.352C535.327 145.946 534.841 146.485 534.386 147.05C533.074 148.674 532.024 150.49 530.98 152.297C527.203 158.818 523.43 165.342 519.653 171.863C518.747 173.422 517.405 175.214 515.623 174.942C516.004 159.743 516.088 144.54 515.643 129.341V129.257" fill="#363638"/>
<path d="M476.631 198.883C476.854 209.646 477.077 220.409 477.3 231.172C474.478 232.409 471.3 232.632 468.24 232.3C465.18 231.969 462.2 231.112 459.245 230.261C453.933 228.731 448.616 227.196 443.303 225.666C443.823 224.147 444.779 222.82 445.759 221.548C452.022 213.419 459.844 206.492 468.671 201.255C469.76 200.606 471.042 199.606 470.72 198.378C472.745 198.576 474.77 198.774 476.631 198.878V198.883Z" fill="#111111"/>
<path d="M482.998 173.536C487.572 173.863 492.117 174.64 496.543 175.858C499.558 176.689 502.598 177.769 504.989 179.784C505.439 180.16 505.875 180.596 506.058 181.155C506.548 182.65 505.063 184.002 503.756 184.883C498.216 188.611 492.677 192.334 487.137 196.061C484.949 197.532 482.691 199.037 480.112 199.586C478.735 199.878 477.305 200.086 475.909 199.898C467.136 198.695 462.923 197.859 454.616 196.72C452.363 196.413 450.497 196.056 448.249 195.745C446.002 195.433 445.353 194.962 442.308 194.363C439.264 193.764 438.585 194.309 434.684 193.537L477.087 148.827" fill="#3F3E43"/>
<path d="M515.593 128.816L515.806 174.397C510.875 173.481 505.949 172.57 501.018 171.655C500.642 156.223 500.716 142.322 500.716 127.475C507.048 128.188 510.85 128.282 515.588 128.816H515.593Z" fill="#111111"/>
<path d="M557.362 95.6271C556.139 96.4638 554.347 98.0827 553.228 98.85C548.461 102.122 545.891 103.444 541.495 105.712C529.906 111.687 519.291 119.395 507.85 125.648C507.642 125.762 507.42 125.876 507.187 125.841C506.974 125.811 506.801 125.658 506.642 125.509C504.885 123.881 503.231 122.148 501.692 120.311C501.197 119.722 500.687 118.945 501.004 118.247C501.182 117.851 501.578 117.608 501.949 117.39C504.623 115.831 507.301 114.271 509.974 112.712C512.093 111.474 514.212 110.242 516.331 109.004C517.341 108.415 518.346 107.826 519.356 107.241C527.628 102.415 535.901 97.5876 544.332 93.0429C548.891 93.9736 552.743 94.6816 557.367 95.6271H557.362Z" fill="#252429"/>
<path d="M557.426 95.637L557.436 101.276C555.248 101.157 553.065 100.9 550.906 100.513" fill="#BFBFBF"/>
<path d="M76.9833 235.211V235.023C71.6761 241.33 65.6858 247.083 59.0766 252.004C107.479 266.935 155.882 281.867 204.29 296.798C221.756 302.184 239.232 307.575 256.95 312.061C263.52 313.724 270.644 315.229 276.911 312.65C283.511 309.932 287.847 301.639 284.852 294.951C266.406 289.352 247.93 283.867 229.415 278.5C178.586 263.762 127.51 249.895 76.9833 235.216V235.211Z" fill="#595A5E"/>
<path d="M315.982 247.37C317.086 261.034 318.195 274.698 319.299 288.362C314.69 286.936 309.363 285.456 304.17 283.53C303.15 270.911 302.214 257.257 301.11 243.598C306.595 245.276 312.13 246.801 315.982 247.375V247.37Z" fill="#595A5E"/>
<path d="M291.511 248.088C291.991 254.212 292.724 260.088 293.204 266.217C293.437 265.267 291.892 265.044 290.892 264.826C286.61 263.871 282.451 262.797 278.174 261.841C278.406 256.088 278.263 250.321 277.733 244.588C282.753 245.999 287.768 247.41 291.511 248.093V248.088Z" fill="#595A5E"/>
<path d="M66.5274 187.324L66.7601 203.507L54.7597 199.982C54.7597 194.096 54.2349 190.096 54.2349 183.818C58.4826 185.21 62.8095 186.442 66.5274 187.319V187.324Z" fill="#595A5E"/>
<path d="M506.38 181.818C507.058 192.19 507.306 202.591 507.113 212.988C497.944 220.478 487.736 226.701 476.869 231.414C476.869 220.156 476.166 210.186 476.166 199.111C477.047 198.69 476.404 198.725 479.29 197.096C484.156 194.353 481.344 195.967 487.696 192.66C489.558 191.69 494.607 188.408 497.414 186.947C500.568 185.304 503.726 183.17 506.37 181.813L506.38 181.818Z" fill="#595A5E"/>
<path d="M176.853 192.408C176.853 197.393 176.843 201.913 176.843 206.79C176.843 206.799 176.833 206.799 176.824 206.799C175.616 206.507 176.16 206.522 173.977 205.997C170.759 205.225 167.071 204.438 163.516 203.78C163.516 198.576 163.501 194.121 163.501 188.962C168.239 190.234 172.804 191.319 176.853 192.408Z" fill="#595A5E"/>
<path d="M281.807 220.132C281.807 225.117 281.798 229.637 281.798 234.513C281.798 234.523 281.788 234.523 281.778 234.523C280.57 234.231 281.114 234.246 278.931 233.721C275.713 232.949 272.025 232.162 268.47 231.503C268.47 226.3 268.455 221.845 268.455 216.686C273.193 217.958 277.758 219.042 281.807 220.132Z" fill="#595A5E"/>
<path d="M473.572 212.661L472.285 188.814C468.2 190.937 464.646 193.012 460.215 195.586C455.784 198.161 450.823 200.522 446.254 203.18C441.907 205.705 437.372 207.879 432.813 209.998C426.268 213.037 419.679 215.968 413.035 218.785C415.337 219.047 416.758 221.315 418.362 222.993C419.778 224.473 421.52 225.582 423.248 226.681C426.684 228.865 430.115 231.048 433.323 233.083C447.229 226.919 460.883 220.186 473.577 212.656L473.572 212.661Z" fill="#595A5E"/>
<path d="M563.976 102.82C557.624 106.083 551.273 109.345 545.05 112.831C535.124 118.395 525.45 123.757 515.638 129.257C511.935 128.876 510.652 128.792 504.043 127.816C506.316 125.995 508.197 124.509 509.944 123.282C511.781 121.994 512.9 121.262 514.989 119.94C516.603 118.92 518.484 117.994 520.118 117.004C529.995 111.009 540.114 105.41 550.436 100.221C554.931 101.4 559.535 102.182 563.981 102.816L563.976 102.82Z" fill="black"/>
<path d="M250.272 148.287C241.955 151.763 233.642 155.233 225.325 158.709C221.682 160.233 217.736 161.783 213.884 160.907C212.166 160.516 210.592 159.654 209.092 158.733C203.027 155.001 197.74 150.005 193.671 144.159C193.28 143.594 192.893 143.01 192.72 142.347C192.398 141.114 192.859 139.827 193.359 138.658C193.785 137.663 194.265 136.663 195.027 135.891C196.032 134.876 197.433 134.356 198.819 134.005C203.894 132.732 209.25 133.396 214.389 134.386C225.568 136.544 236.454 140.238 246.638 145.327C248.237 146.124 249.821 146.961 250.272 148.283V148.287Z" fill="#3E3F43"/>
<path d="M68.6167 239.108C61.6065 237.365 56.3489 231.533 52.5666 225.384C45.9624 214.646 42.4969 202.007 42.6999 189.403C42.8633 179.303 45.4921 168.981 51.7102 161.021C54.636 157.278 58.2797 154.144 62.1164 151.337C68.983 146.312 76.7754 142.183 85.2213 141.149C93.6671 140.114 102.856 142.589 108.47 148.981C102.717 140.723 91.9591 137.97 82.1271 135.817C73.1416 133.846 64.1562 131.881 55.1707 129.911C51.2597 129.054 47.2694 128.193 43.2792 128.539C38.7394 128.935 34.4719 130.876 30.5609 133.218C16.8277 141.436 6.44617 155.095 2.20344 170.531C-2.03929 185.967 -0.093689 203.007 7.51054 217.092C8.70366 219.3 10.0502 221.468 11.877 223.186C14.6939 225.84 18.4268 227.251 22.0507 228.597C37.1898 234.221 52.7052 239.915 68.6117 239.103L68.6167 239.108Z" fill="#595959"/>
<path d="M641.915 129.757C640.603 125.589 637.048 122.425 633.087 120.574C629.127 118.722 624.751 117.999 620.439 117.296C603.042 114.46 585.645 111.628 568.249 108.791C565.739 108.38 563.174 107.974 560.664 108.37C557.882 108.811 555.347 110.217 552.976 111.737C544.084 117.425 536.47 125.094 530.841 134.02C524.742 143.693 521.024 154.674 518.192 165.753C513.469 184.215 513.024 205.651 519.192 221.785C520.791 225.973 523.539 229.746 527.004 232.583C532.079 236.731 538.747 238.246 545.154 239.637C567.159 244.415 610.527 254.628 610.527 254.628" fill="#595959"/>
<path d="M438.486 231.305C437.125 227.79 435.645 224.107 432.699 221.755C430.283 219.825 427.174 219.038 424.174 218.3C413.174 215.597 402.173 212.894 391.168 210.191C384.351 208.517 377.301 206.829 370.38 208.022C362.335 209.409 355.414 214.547 349.701 220.379C332.29 238.152 323.507 264.029 326.507 288.728C327.685 298.446 330.72 308.184 336.879 315.794C338.552 317.858 340.453 319.764 342.681 321.215C345.919 323.319 349.701 324.378 353.424 325.388C370.246 329.948 387.188 334.062 404.223 337.725" fill="#595959"/>
<path d="M639.023 122.856C645.36 125.272 650.311 130.559 653.42 136.589C656.534 142.614 657.97 149.367 658.856 156.09C660.678 169.858 660.321 183.913 657.806 197.576C656.727 203.438 655.247 209.255 652.92 214.745C650.029 221.572 645.885 227.78 641.766 233.944C639.197 237.786 636.588 241.677 633.127 244.746C627.929 249.355 621.122 251.801 614.275 252.96C611.413 253.445 608.468 253.717 605.621 253.153C598.106 251.658 592.893 244.672 590.056 237.548C586.779 229.325 585.69 220.379 585.477 211.527C584.922 188.299 590.348 164.951 601.081 144.347C604.973 136.871 609.745 129.549 616.716 124.816C623.686 120.084 632.241 120.282 639.009 122.866L639.023 122.856Z" fill="#6B6B6B" stroke="#6B6B6B" stroke-miterlimit="10"/>
<path d="M437.269 224.102C443.68 228.78 448.096 235.86 450.487 243.425C452.878 250.989 453.358 259.054 452.957 266.98C452.096 283.976 447.165 300.833 438.15 315.269C432.773 323.873 425.62 331.849 416.194 335.611C406.767 339.374 394.787 337.953 388.188 330.24C384.296 325.69 382.692 319.64 381.702 313.739C379.054 297.966 380.034 281.54 385.009 266.341C389.985 251.143 398.99 237.216 411.129 226.805C414.53 223.889 418.347 221.166 422.768 220.409C427.753 219.557 433.046 221.018 437.269 224.097V224.102Z" fill="#6B6B6B" stroke="#6B6B6B" stroke-miterlimit="10"/>
<path d="M635.434 151.966C639.949 154.025 643.325 158.129 645.256 162.704C647.187 167.278 647.806 172.303 647.915 177.269C648.187 190.21 645.063 203.205 638.934 214.602C636.469 219.186 633.409 223.632 629.058 226.493C624.706 229.355 618.834 230.355 614.245 227.899C611.547 226.459 609.522 223.983 608.027 221.315C603.067 212.463 603.453 201.636 604.953 191.601C606.091 183.967 607.824 176.338 611.24 169.417C614.656 162.496 619.879 156.288 626.736 152.743C627.82 152.184 628.949 151.689 630.142 151.446C631.657 151.139 633.35 151.01 635.434 151.961V151.966Z" fill="#A3A3A3"/>
<path d="M430.546 246.791C435.848 249.148 439.179 254.479 440.833 259.93C443.472 268.623 442.605 278.015 440.303 286.802C438.803 292.53 436.679 298.174 433.283 303.07C429.887 307.971 425.139 312.11 419.441 314.125C417.104 314.952 414.599 315.417 412.129 315.155C406.545 314.566 401.916 310.293 399.574 305.318C397.232 300.342 396.807 294.723 396.693 289.248C396.584 284.02 396.737 278.723 398.203 273.698C399.683 268.633 401.396 263.896 404.436 258.762C407.015 254.41 410.634 250.722 414.961 247.994C419.54 245.108 425.575 244.583 430.546 246.791Z" fill="#A3A3A3"/>
<path d="M506.236 67.9429C517.826 85.3644 513.321 110.355 506.657 128.94C499.271 149.54 489.503 171.09 471.369 183.338C454.69 194.606 433.288 195.304 413.169 195.616C380.979 196.121 348.706 196.616 316.68 193.344C307.922 192.447 299.09 191.244 290.897 188.031C270.47 180.021 256.128 162.001 243.737 143.891C236.935 133.945 230.271 126.123 223.092 116.44C218.84 110.707 211.513 101.38 204.745 98.7114C201.008 97.2361 200.854 96.2905 196.839 96.4638C176.576 97.3499 184.878 105.959 169.808 122.197C162.264 130.326 137.535 159.719 122.129 146.961C142.411 115.796 165.769 84.399 192.968 59.0466C203.607 49.1304 215.013 40.1796 227.296 32.3872C244.583 21.4165 264.139 14.3568 283.976 9.2824C362.157 -10.7134 462.784 2.62375 506.236 67.9429Z" fill="#00783A"/>
<path d="M477.166 67.6162C475.953 76.5819 474.171 85.4683 471.824 94.2063C469.78 91.0626 465.784 89.9932 462.354 88.4833C459.106 87.0525 456.15 85.0525 453.15 83.1564C442.734 76.5769 431.585 71.1559 419.976 67.0271C418.807 66.6112 417.624 66.2053 416.585 65.532C415.515 64.8389 414.634 63.8883 413.763 62.9576C401.426 49.7987 387.494 38.13 372.38 28.2831C374.494 22.6542 377.108 17.2134 380.564 12.6291C395.668 15.2579 410.589 18.9115 425.199 23.5502C427.224 24.1938 429.253 24.8622 431.15 25.8226C432.694 26.6048 434.135 27.5752 435.57 28.5405C438.927 30.798 442.279 33.0506 445.541 35.4467C457.546 44.2589 468.2 54.9128 477.161 67.6261L477.166 67.6162Z" fill="#1B945D"/>
<path d="M412.99 71.2896C399.787 58.0465 386.024 45.1748 370.281 35.0853C368.865 34.1794 367.41 33.2833 365.786 32.8476C364.405 32.4813 362.959 32.4565 361.533 32.4565C344.854 32.4219 328.171 34.511 312.12 38.5458C310.412 51.9127 305.442 64.7003 304.373 78.4334C313.017 85.0376 321.675 91.6517 329.631 99.0728C336.894 105.845 343.532 113.252 350.602 120.682C362.291 119.123 374.083 118.341 385.876 118.341C392.678 118.341 399.683 118.653 405.827 121.608C407.48 104.721 409.773 87.8942 412.995 71.2896H412.99Z" fill="#1B945D"/>
<path d="M367.954 10.2627C355.043 7.28237 341.924 5.20308 328.72 4.03473C324.274 3.64362 319.804 3.35153 315.348 3.59906C309.551 3.91591 303.838 5.13873 298.209 6.54967C292.387 8.01012 286.57 9.70325 281.273 12.5202C275.976 15.3371 271.183 19.3818 268.713 24.9612C273.446 25.2236 278.149 25.8177 282.852 26.4068C290.342 27.3474 298.061 28.3623 304.957 32.1001C322.453 27.0999 340.81 25.1395 358.954 26.5603C359.048 26.5851 359.142 26.6098 359.201 26.2088C360.919 20.1739 364.271 14.7133 367.954 10.2627Z" fill="#1B945D"/>
<path d="M275.901 11.8864C268.04 15.4262 261.01 20.8026 255.113 27.5603C237.256 34.5952 220.736 45.0065 206.389 58.398C205.107 58.5911 203.909 59.1406 202.735 59.6852C201.22 60.3882 199.701 61.0862 198.186 61.7892C196.077 62.7645 193.963 63.7398 191.893 64.8091C186.448 67.6211 181.334 71.0718 176.457 74.9679C180.893 68.4677 186.695 63.0269 192.631 57.8584C216.553 37.0309 244.158 19.4263 275.901 11.8864Z" fill="#1B945D"/>
<path d="M433.635 18.7976C414.877 12.4112 395.193 8.7527 375.395 7.89128C364.098 3.96044 352.102 2.53959 340.329 1.00984C366.068 -1.12885 393.213 1.33658 418.713 9.25271C424.06 10.9112 426.981 12.9954 433.635 18.7976Z" fill="#1B945D"/>
<path d="M291.951 75.0274C292.763 62.8685 294.971 50.8037 298.293 38.734C294.897 36.3478 290.699 35.4715 286.634 34.6546C276.352 32.5902 265.782 30.5406 255.351 32.1447C249.653 34.6893 244.321 37.9864 239.014 41.2687C229.261 47.3036 219.474 53.3583 210.577 60.4179C206.047 69.349 202.463 78.7552 200.423 88.6021C205.721 87.9635 211.077 87.7803 216.404 88.0526C218.518 88.1615 220.647 88.3447 222.652 89.0229C224.33 89.5873 225.875 90.4834 227.385 91.4042C231.177 93.7112 234.85 96.2163 238.286 98.9837C253.212 93.1716 267.871 86.6664 282.199 79.4929C285.451 77.8641 288.699 76.1957 291.951 75.0323V75.0274Z" fill="#1B945D"/>
<path d="M245.321 146.119C237.662 135.411 230.469 124.341 222.107 114.167C213.746 103.994 204.092 94.6568 192.547 88.3298C180.997 82.0029 167.383 78.8592 154.461 81.4038C150.496 82.186 146.55 83.5326 143.367 86.0228C138.654 89.716 136.119 95.4588 133.763 100.964" fill="#015931"/>
<path d="M154.234 103.296C152.451 100.672 151.709 97.4143 151.907 94.2508C152.105 91.0874 153.214 88.0179 154.857 85.305C153.501 84.8396 152.139 84.3742 150.783 83.9138C149.6 83.5079 148.402 83.1019 147.159 82.9633C145.04 82.7257 142.926 83.2752 140.867 83.8247C137.203 84.7951 133.357 85.8694 130.658 88.5328C128.698 90.4685 127.54 93.0726 126.629 95.6766C125.332 99.3847 124.49 103.662 126.381 107.103C126.822 107.905 127.416 108.642 128.183 109.142C129.104 109.742 130.218 109.964 131.307 110.113C139.535 111.247 148.194 108.821 154.239 103.301L154.234 103.296Z" fill="#829389"/>
<path d="M245.242 146.416C239.672 141.025 234.103 135.633 228.533 130.237C225.716 127.509 222.89 124.772 219.776 122.385C216.251 119.682 212.389 117.455 208.503 115.306C194.443 107.543 179.848 100.761 164.848 95.0182C159.778 100.385 153.635 104.736 146.887 107.731C140.906 110.385 133.837 111.935 127.926 109.133C132.569 113.821 137.57 119.45 136.916 126.019" fill="#3A6750"/>
<path d="M219.87 122.202C214.761 117.351 211.102 111.212 207.151 105.385C203.196 99.553 198.715 93.8102 192.591 90.3299C190.081 88.9041 187.359 87.8991 184.621 86.9882C180.928 85.7604 177.145 84.696 173.264 84.399C171.482 84.2653 169.645 84.3 167.967 84.904C166.288 85.5079 164.764 86.7605 164.184 88.4486C163.407 90.721 164.427 93.1716 165.432 95.3499" fill="#A0B0A6"/>
<path d="M171.808 100.588C174.145 100.568 176.863 100.731 178.215 102.637C178.675 103.286 178.913 104.073 178.977 104.865C179.185 107.335 177.72 109.776 175.606 111.063C173.492 112.355 170.843 112.583 168.422 112.049C167.016 111.737 165.536 111.053 164.991 109.717C164.675 108.935 164.734 108.058 164.833 107.227C164.991 105.88 165.254 104.484 166.071 103.405C167.447 101.583 169.873 100.607 171.808 100.593V100.588Z" fill="#004123"/>
<path d="M173.452 100.761C173.749 102.464 173.442 104.241 172.764 105.83C172.086 107.42 171.081 108.87 169.858 110.093C168.724 111.227 168.729 111.162 167.338 111.702C167.234 111.742 167.209 111.672 167.11 111.633C167.011 111.588 166.293 111.227 166.219 111.152C165.962 110.9 166.373 111.261 166.081 111.053C165.284 110.489 164.655 109.321 164.586 108.35C164.516 107.38 164.764 106.41 165.09 105.489C165.368 104.707 165.709 103.939 166.234 103.301C166.457 103.028 166.709 102.781 166.977 102.553C168.784 101.004 171.299 100.246 173.462 100.761H173.452Z" fill="#032514"/>
</svg>
